<?xml version="1.0" encoding="utf-8"?>
<!-- Generator: Adobe Illustrator 25.4.0, SVG Export Plug-In . SVG Version: 6.00 Build 0)  -->
<svg version="1.1" id="Calque_1" xmlns="http://www.w3.org/2000/svg" xmlns:xlink="http://www.w3.org/1999/xlink" x="0px" y="0px"
	 viewBox="0 0 36 36" style="enable-background:new 0 0 36 36;" xml:space="preserve">
<style type="text/css">
	.st0{fill:#FFFFFF;}
</style>
<path class="st0" d="M29.1,19.5c0.1-0.5,0.1-1,0.1-1.5c0-0.5,0-1-0.1-1.5l3.2-2.5c0.3-0.2,0.4-0.6,0.2-1l-3-5.2
	c-0.1-0.2-0.4-0.4-0.7-0.4c-0.1,0-0.2,0-0.3,0l-3.7,1.5c-0.8-0.6-1.6-1.1-2.5-1.5l-0.6-4C21.7,3.3,21.4,3,21,3h-6
	c-0.4,0-0.7,0.3-0.7,0.6l-0.6,4c-0.9,0.4-1.8,0.9-2.5,1.5L7.4,7.6c-0.1,0-0.2,0-0.3,0c-0.3,0-0.5,0.1-0.6,0.4l-3,5.2
	c-0.2,0.3-0.1,0.7,0.2,1l3.2,2.5c-0.1,0.5-0.1,1-0.1,1.5c0,0.5,0,1,0.1,1.5l-3.2,2.5c-0.3,0.2-0.4,0.6-0.2,1l3,5.2
	c0.1,0.2,0.4,0.4,0.7,0.4c0.1,0,0.2,0,0.3,0l3.7-1.5c0.8,0.6,1.6,1.1,2.5,1.5l0.6,4c0,0.4,0.4,0.6,0.7,0.6h6c0.4,0,0.7-0.3,0.7-0.6
	l0.6-4c0.9-0.4,1.8-0.9,2.5-1.5l3.7,1.5c0.1,0,0.2,0,0.3,0c0.3,0,0.5-0.1,0.6-0.4l3-5.2c0.2-0.3,0.1-0.7-0.2-1L29.1,19.5z
	 M26.2,16.9c0.1,0.5,0.1,0.8,0.1,1.1c0,0.3,0,0.6-0.1,1.1L26,20.8l1.3,1.1l1.6,1.3l-1.1,1.8L26,24.2l-1.6-0.6l-1.4,1
	c-0.6,0.5-1.3,0.8-1.9,1.1l-1.6,0.6L19.4,28l-0.3,2H17l-0.3-2l-0.2-1.7l-1.6-0.6c-0.6-0.3-1.2-0.6-1.8-1.1l-1.4-1L10,24.2l-1.9,0.8
	l-1-1.8l1.6-1.3l1.3-1.1l-0.2-1.7c0-0.5-0.1-0.8-0.1-1.1c0-0.3,0-0.6,0.1-1.1l0.2-1.7l-1.3-1.1l-1.6-1.3l1-1.8l1.9,0.8l1.6,0.6
	l1.3-1c0.6-0.5,1.3-0.8,1.9-1.1l1.6-0.6L16.7,8L17,6H19l0.3,2l0.2,1.7l1.6,0.6c0.6,0.3,1.2,0.6,1.8,1.1l1.4,1.1l1.6-0.6l1.9-0.8
	l1.1,1.8l-1.6,1.3L26,15.2C26,15.2,26.2,16.9,26.2,16.9z M18,12c-3.3,0-6,2.7-6,6s2.7,6,6,6s6-2.7,6-6S21.3,12,18,12z M18,21
	c-1.7,0-3-1.3-3-3s1.3-3,3-3s3,1.3,3,3S19.7,21,18,21z"/>
</svg>
