<?xml version="1.0" encoding="utf-8"?>
<!-- Generator: Adobe Illustrator 25.4.0, SVG Export Plug-In . SVG Version: 6.00 Build 0)  -->
<svg version="1.1" id="Calque_1" xmlns="http://www.w3.org/2000/svg" xmlns:xlink="http://www.w3.org/1999/xlink" x="0px" y="0px"
	 viewBox="0 0 24 24" style="enable-background:new 0 0 24 24;" xml:space="preserve">
<style type="text/css">
	.st0{fill:#FFFFFF;}
</style>
<g>
	<path class="st0" d="M19,14V6c0-1.1-0.9-2-2-2H3C1.9,4,1,4.9,1,6v8c0,1.1,0.9,2,2,2h14C18.1,16,19,15.1,19,14z M17,14H3V6h14V14z
		 M10,7c-1.7,0-3,1.3-3,3s1.3,3,3,3s3-1.3,3-3S11.7,7,10,7z M23,7v11c0,1.1-0.9,2-2,2H4c0-1,0-0.9,0-2h17V7C22.1,7,22,7,23,7z"/>
</g>
</svg>
