<?xml version="1.0" encoding="utf-8"?>
<!-- Generator: Adobe Illustrator 24.0.1, SVG Export Plug-In . SVG Version: 6.00 Build 0)  -->
<svg version="1.1" id="Calque_1" xmlns="http://www.w3.org/2000/svg" xmlns:xlink="http://www.w3.org/1999/xlink" x="0px" y="0px"
	 viewBox="0 0 460 325" style="enable-background:new 0 0 460 325;" xml:space="preserve">
<style type="text/css">
	.st0{fill:#7EBBE7;}
	.st1{fill:#5AA3DA;}
	.st2{fill:#B7DDF6;}
	.st3{fill:#FFFFFF;}
	.st4{clip-path:url(#SVGID_2_);fill:#5DC2D8;}
	.st5{clip-path:url(#SVGID_2_);fill:#5CC2D7;}
	.st6{clip-path:url(#SVGID_2_);fill:#5CC1D7;}
	.st7{clip-path:url(#SVGID_2_);fill:#5CC0D7;}
	.st8{clip-path:url(#SVGID_2_);fill:#5CBFD7;}
	.st9{clip-path:url(#SVGID_2_);fill:#5BBED7;}
	.st10{clip-path:url(#SVGID_2_);fill:#5BBED6;}
	.st11{clip-path:url(#SVGID_2_);fill:#5BBDD6;}
	.st12{clip-path:url(#SVGID_2_);fill:#5BBCD6;}
	.st13{clip-path:url(#SVGID_2_);fill:#5ABBD6;}
	.st14{clip-path:url(#SVGID_2_);fill:#5ABAD5;}
	.st15{clip-path:url(#SVGID_2_);fill:#5AB9D5;}
	.st16{clip-path:url(#SVGID_2_);fill:#5AB8D5;}
	.st17{clip-path:url(#SVGID_2_);fill:#59B8D5;}
	.st18{clip-path:url(#SVGID_2_);fill:#59B7D4;}
	.st19{clip-path:url(#SVGID_2_);fill:#59B6D4;}
	.st20{clip-path:url(#SVGID_2_);fill:#59B5D4;}
	.st21{clip-path:url(#SVGID_2_);fill:#59B4D4;}
	.st22{clip-path:url(#SVGID_2_);fill:#58B4D3;}
	.st23{clip-path:url(#SVGID_2_);fill:#58B3D3;}
	.st24{clip-path:url(#SVGID_2_);fill:#58B2D3;}
	.st25{clip-path:url(#SVGID_2_);fill:#58B1D3;}
	.st26{clip-path:url(#SVGID_2_);fill:#58B0D2;}
	.st27{clip-path:url(#SVGID_2_);fill:#57AFD2;}
	.st28{clip-path:url(#SVGID_2_);fill:#57AED2;}
	.st29{clip-path:url(#SVGID_2_);fill:#57AED1;}
	.st30{clip-path:url(#SVGID_2_);fill:#57ADD1;}
	.st31{clip-path:url(#SVGID_2_);fill:#57ACD1;}
	.st32{clip-path:url(#SVGID_2_);fill:#57ABD1;}
	.st33{clip-path:url(#SVGID_2_);fill:#57ABD0;}
	.st34{clip-path:url(#SVGID_2_);fill:#57AAD0;}
	.st35{clip-path:url(#SVGID_2_);fill:#56A9D0;}
	.st36{clip-path:url(#SVGID_2_);fill:#56A8CF;}
	.st37{clip-path:url(#SVGID_2_);fill:#56A7CF;}
	.st38{clip-path:url(#SVGID_2_);fill:#56A6CF;}
	.st39{clip-path:url(#SVGID_2_);fill:#56A6CE;}
	.st40{clip-path:url(#SVGID_2_);fill:#56A5CE;}
	.st41{clip-path:url(#SVGID_2_);fill:#56A4CE;}
	.st42{clip-path:url(#SVGID_2_);fill:#56A3CE;}
	.st43{clip-path:url(#SVGID_2_);fill:#55A3CD;}
	.st44{clip-path:url(#SVGID_2_);fill:#55A2CD;}
	.st45{clip-path:url(#SVGID_2_);fill:#55A1CD;}
	.st46{clip-path:url(#SVGID_2_);fill:#55A1CC;}
	.st47{clip-path:url(#SVGID_2_);fill:#55A0CC;}
	.st48{clip-path:url(#SVGID_2_);fill:#559FCC;}
	.st49{clip-path:url(#SVGID_2_);fill:#559ECB;}
	.st50{clip-path:url(#SVGID_2_);fill:#559DCB;}
	.st51{clip-path:url(#SVGID_2_);fill:#559CCB;}
	.st52{clip-path:url(#SVGID_2_);fill:#559CCA;}
	.st53{clip-path:url(#SVGID_2_);fill:#559BCA;}
	.st54{clip-path:url(#SVGID_2_);fill:#559ACA;}
	.st55{clip-path:url(#SVGID_2_);fill:#5599C9;}
	.st56{clip-path:url(#SVGID_2_);fill:#5498C9;}
	.st57{clip-path:url(#SVGID_2_);fill:#5497C8;}
	.st58{clip-path:url(#SVGID_2_);fill:#5496C8;}
	.st59{clip-path:url(#SVGID_2_);fill:#5495C8;}
	.st60{clip-path:url(#SVGID_2_);fill:#5495C7;}
	.st61{clip-path:url(#SVGID_2_);fill:#5494C7;}
	.st62{clip-path:url(#SVGID_2_);fill:#5493C7;}
	.st63{clip-path:url(#SVGID_2_);fill:#5493C6;}
	.st64{clip-path:url(#SVGID_2_);fill:#5492C6;}
	.st65{clip-path:url(#SVGID_2_);fill:#5491C6;}
	.st66{clip-path:url(#SVGID_2_);fill:#5490C5;}
	.st67{clip-path:url(#SVGID_2_);fill:#548FC5;}
	.st68{clip-path:url(#SVGID_2_);fill:#548FC4;}
	.st69{clip-path:url(#SVGID_2_);fill:#548EC4;}
	.st70{clip-path:url(#SVGID_2_);fill:#548DC4;}
	.st71{clip-path:url(#SVGID_2_);fill:#548CC3;}
	.st72{clip-path:url(#SVGID_2_);fill:#548BC3;}
	.st73{clip-path:url(#SVGID_2_);fill:#548AC2;}
	.st74{clip-path:url(#SVGID_2_);fill:#5489C2;}
	.st75{clip-path:url(#SVGID_2_);fill:#5488C1;}
	.st76{clip-path:url(#SVGID_2_);fill:#5388C1;}
	.st77{clip-path:url(#SVGID_2_);fill:#5387C1;}
	.st78{clip-path:url(#SVGID_2_);fill:#5386C0;}
	.st79{clip-path:url(#SVGID_2_);fill:#5385C0;}
	.st80{clip-path:url(#SVGID_2_);fill:#5384BF;}
	.st81{clip-path:url(#SVGID_2_);fill:#5383BF;}
	.st82{clip-path:url(#SVGID_2_);fill:#5382BE;}
	.st83{clip-path:url(#SVGID_2_);fill:#5381BE;}
	.st84{clip-path:url(#SVGID_2_);fill:#5381BD;}
	.st85{clip-path:url(#SVGID_2_);fill:#5480BD;}
	.st86{clip-path:url(#SVGID_2_);fill:#547FBD;}
	.st87{clip-path:url(#SVGID_2_);fill:#547FBC;}
	.st88{clip-path:url(#SVGID_2_);fill:#547EBC;}
	.st89{clip-path:url(#SVGID_2_);fill:#547DBB;}
	.st90{clip-path:url(#SVGID_2_);fill:#547CBB;}
	.st91{clip-path:url(#SVGID_2_);fill:#547BBA;}
	.st92{clip-path:url(#SVGID_2_);fill:#547ABA;}
	.st93{clip-path:url(#SVGID_2_);fill:#5479B9;}
	.st94{clip-path:url(#SVGID_2_);fill:#5478B9;}
	.st95{clip-path:url(#SVGID_2_);fill:#5477B8;}
	.st96{clip-path:url(#SVGID_2_);fill:#5476B8;}
	.st97{clip-path:url(#SVGID_2_);fill:#5475B7;}
	.st98{clip-path:url(#SVGID_2_);fill:#5474B7;}
	.st99{clip-path:url(#SVGID_2_);fill:#5473B6;}
	.st100{clip-path:url(#SVGID_2_);fill:#5472B5;}
	.st101{clip-path:url(#SVGID_2_);fill:#5471B5;}
	.st102{clip-path:url(#SVGID_2_);fill:#5470B4;}
	.st103{clip-path:url(#SVGID_2_);fill:#546FB4;}
	.st104{clip-path:url(#SVGID_2_);fill:#546EB3;}
	.st105{clip-path:url(#SVGID_2_);fill:#546DB3;}
	.st106{clip-path:url(#SVGID_2_);fill:#546DB2;}
	.st107{fill:#DFE1E8;}
	.st108{fill:#EEF0F7;}
	.st109{fill:#3C4145;}
	.st110{fill:#99584A;}
	.st111{fill:#E55453;}
	.st112{fill:#603813;}
	.st113{fill:#BE4444;}
	.st114{fill:#323657;}
	.st115{fill:#716966;}
	.st116{fill:#B59174;}
	.st117{fill:#918683;}
	.st118{fill:#1C3B54;}
	.st119{fill:#E94747;}
	.st120{fill:#142C3D;}
	.st121{fill:#EEDAD3;}
	.st122{fill:#010202;}
	.st123{fill:#EEA886;}
	.st124{fill:#BFB2AC;}
	.st125{fill:#D9C7C1;}
	.st126{fill:#5174AC;}
	.st127{fill:#F6F7FC;}
	.st128{fill:#82BDE8;}
	.st129{fill:#1A5A8D;}
	.st130{fill:#2274B6;}
	.st131{fill:#F3F3F3;}
	.st132{fill:#1C1F32;}
	.st133{fill:#51558B;}
	.st134{fill:#2A2C47;}
	.st135{fill:#3A4066;}
	.st136{fill:#E3D3CB;}
	.st137{fill:#CCBDB7;}
	.st138{fill:#4668A9;}
	.st139{fill:#FBBF5E;}
	.st140{fill:#424773;}
	.st141{fill:#5E5954;}
	.st142{fill:#6386C4;}
	.st143{fill:#CECFD6;}
	.st144{fill:#5C5552;}
	.st145{fill:#2E436E;}
	.st146{fill:#C88E72;}
	.st147{fill:#939494;}
</style>
<g id="Groupe_189" transform="translate(2.267 -99.965)">
	<g id="Groupe_188" transform="translate(-2.267 99.965)">
		<g id="Groupe_4" transform="translate(353.894)">
			<g id="Tracé_4">
				<path class="st0" d="M66.1,29.4c-0.7-2.7-1.8-5.4-3.2-7.8l3.3-5L61.6,12L57,7.5l-5,3.3c-2.4-1.4-5.1-2.5-7.8-3.2l-1.2-5.8H30.2
					L29,7.5c-2.7,0.7-5.4,1.8-7.8,3.2l-5-3.3L11.7,12l-4.6,4.6l3.3,5c-1.4,2.4-2.5,5.1-3.2,7.8l-5.8,1.2v12.9l5.8,1.2
					c0.7,2.7,1.8,5.4,3.2,7.8l-3.3,5l4.6,4.6l4.6,4.6l5-3.3c2.4,1.4,5.1,2.5,7.8,3.2l1.2,5.8h12.9l1.2-5.8c2.7-0.7,5.4-1.8,7.8-3.2
					l5,3.3l4.6-4.6l4.6-4.6l-3.3-4.9c1.4-2.4,2.5-5.1,3.2-7.8l5.8-1.2V30.5L66.1,29.4z M36.6,59.6C24.1,59.6,14,49.5,14,37
					s10.1-22.6,22.6-22.6c12.5,0,22.6,10.1,22.6,22.6c0,0,0,0,0,0C59.3,49.5,49.1,59.6,36.6,59.6z"/>
			</g>
		</g>
		<g id="Groupe_5" transform="translate(397.785 69.935)">
			<g id="Tracé_5">
				<path class="st0" d="M31,14.4c-0.3-1.3-0.8-2.5-1.5-3.6L31,8.5l-2.1-2.1l-2.1-2.1l-2.3,1.5c-1.1-0.7-2.3-1.2-3.6-1.5l-0.5-2.7
					h-5.9L14,4.4c-1.3,0.3-2.5,0.8-3.6,1.5L8.1,4.3L6.1,6.4L4,8.5l1.5,2.3c-0.7,1.1-1.2,2.3-1.5,3.6l-2.7,0.5v5.9L4,21.4
					c0.3,1.3,0.8,2.5,1.5,3.6L4,27.2l2.1,2.1l2.1,2.1l2.3-1.5c1.1,0.7,2.3,1.2,3.6,1.5l0.5,2.7h5.9l0.5-2.7c1.3-0.3,2.5-0.8,3.6-1.5
					l2.3,1.5l2.1-2.1l2.1-2.1L29.5,25c0.7-1.1,1.2-2.3,1.5-3.6l2.7-0.5v-5.9L31,14.4z M17.5,28.3c-5.7,0-10.4-4.6-10.4-10.4
					c0-5.7,4.6-10.4,10.4-10.4s10.4,4.6,10.4,10.4c0,0,0,0,0,0C27.9,23.6,23.2,28.3,17.5,28.3C17.5,28.3,17.5,28.3,17.5,28.3z"/>
			</g>
		</g>
		<g id="Groupe_6" transform="translate(239.704 191.936)">
			<g id="Rectangle_8">
				<rect x="1.3" y="1.7" class="st1" width="31.8" height="96.6"/>
			</g>
		</g>
		<g id="Groupe_7" transform="translate(118.347 44.799)">
			<g id="Rectangle_9">
				<path class="st2" d="M259.8,195.3H17.3c-8.8,0-16-7.2-16-16V17.7c0-8.8,7.2-16,16-16h242.5c8.8,0,16,7.2,16,16v161.7
					C275.8,188.2,268.7,195.3,259.8,195.3z"/>
			</g>
		</g>
		<g id="Groupe_8" transform="translate(129.098 24.189)">
			<g id="Rectangle_10">
				<rect x="1.3" y="1.7" class="st3" width="253" height="183.9"/>
			</g>
		</g>
		<g id="Groupe_9" transform="translate(129.098 24.189)">
			<g id="Rectangle_11">
				<g>
					<defs>
						<rect id="SVGID_1_" x="1.3" y="1.7" width="253" height="22.2"/>
					</defs>
					<clipPath id="SVGID_2_">
						<use xlink:href="#SVGID_1_"  style="overflow:visible;"/>
					</clipPath>
					<path class="st4" d="M254.3,23.9V1.7V23.9z"/>
					<rect x="252.6" y="1.7" class="st4" width="1.8" height="22.2"/>
					<rect x="250.8" y="1.7" class="st5" width="1.8" height="22.2"/>
					<rect x="249.1" y="1.7" class="st6" width="1.8" height="22.2"/>
					<rect x="247.3" y="1.7" class="st6" width="1.8" height="22.2"/>
					<rect x="245.5" y="1.7" class="st7" width="1.8" height="22.2"/>
					<rect x="243.8" y="1.7" class="st8" width="1.8" height="22.2"/>
					<rect x="242" y="1.7" class="st8" width="1.8" height="22.2"/>
					<rect x="240.3" y="1.7" class="st9" width="1.8" height="22.2"/>
					<rect x="238.5" y="1.7" class="st10" width="1.8" height="22.2"/>
					<rect x="236.8" y="1.7" class="st11" width="1.8" height="22.2"/>
					<rect x="235" y="1.7" class="st11" width="1.8" height="22.2"/>
					<rect x="233.2" y="1.7" class="st12" width="1.8" height="22.2"/>
					<rect x="231.5" y="1.7" class="st12" width="1.8" height="22.2"/>
					<rect x="229.7" y="1.7" class="st13" width="1.8" height="22.2"/>
					<rect x="228" y="1.7" class="st14" width="1.8" height="22.2"/>
					<rect x="226.2" y="1.7" class="st14" width="1.8" height="22.2"/>
					<rect x="224.5" y="1.7" class="st15" width="1.8" height="22.2"/>
					<rect x="222.7" y="1.7" class="st15" width="1.8" height="22.2"/>
					<rect x="220.9" y="1.7" class="st16" width="1.8" height="22.2"/>
					<rect x="219.2" y="1.7" class="st17" width="1.8" height="22.2"/>
					<rect x="217.4" y="1.7" class="st18" width="1.8" height="22.2"/>
					<rect x="215.7" y="1.7" class="st18" width="1.8" height="22.2"/>
					<rect x="213.9" y="1.7" class="st19" width="1.8" height="22.2"/>
					<rect x="212.2" y="1.7" class="st20" width="1.8" height="22.2"/>
					<rect x="210.4" y="1.7" class="st20" width="1.8" height="22.2"/>
					<rect x="208.6" y="1.7" class="st21" width="1.8" height="22.2"/>
					<rect x="206.9" y="1.7" class="st22" width="1.8" height="22.2"/>
					<rect x="205.1" y="1.7" class="st23" width="1.8" height="22.2"/>
					<rect x="203.4" y="1.7" class="st23" width="1.8" height="22.2"/>
					<rect x="201.6" y="1.7" class="st24" width="1.8" height="22.2"/>
					<rect x="199.9" y="1.7" class="st24" width="1.8" height="22.2"/>
					<rect x="198.1" y="1.7" class="st25" width="1.8" height="22.2"/>
					<rect x="196.3" y="1.7" class="st26" width="1.8" height="22.2"/>
					<rect x="194.6" y="1.7" class="st26" width="1.8" height="22.2"/>
					<rect x="192.8" y="1.7" class="st27" width="1.8" height="22.2"/>
					<rect x="191.1" y="1.7" class="st27" width="1.8" height="22.2"/>
					<rect x="189.3" y="1.7" class="st28" width="1.8" height="22.2"/>
					<rect x="187.6" y="1.7" class="st29" width="1.8" height="22.2"/>
					<rect x="185.8" y="1.7" class="st30" width="1.8" height="22.2"/>
					<rect x="184" y="1.7" class="st30" width="1.8" height="22.2"/>
					<rect x="182.3" y="1.7" class="st31" width="1.8" height="22.2"/>
					<rect x="180.5" y="1.7" class="st32" width="1.8" height="22.2"/>
					<rect x="178.8" y="1.7" class="st33" width="1.8" height="22.2"/>
					<rect x="177" y="1.7" class="st34" width="1.8" height="22.2"/>
					<rect x="175.3" y="1.7" class="st34" width="1.8" height="22.2"/>
					<rect x="173.5" y="1.7" class="st35" width="1.8" height="22.2"/>
					<rect x="171.7" y="1.7" class="st35" width="1.8" height="22.2"/>
					<rect x="170" y="1.7" class="st36" width="1.8" height="22.2"/>
					<rect x="168.2" y="1.7" class="st36" width="1.8" height="22.2"/>
					<rect x="166.5" y="1.7" class="st37" width="1.8" height="22.2"/>
					<rect x="164.7" y="1.7" class="st38" width="1.8" height="22.2"/>
					<rect x="163" y="1.7" class="st39" width="1.8" height="22.2"/>
					<rect x="161.2" y="1.7" class="st40" width="1.8" height="22.2"/>
					<rect x="159.4" y="1.7" class="st40" width="1.8" height="22.2"/>
					<rect x="157.7" y="1.7" class="st41" width="1.8" height="22.2"/>
					<rect x="155.9" y="1.7" class="st42" width="1.8" height="22.2"/>
					<rect x="154.2" y="1.7" class="st43" width="1.8" height="22.2"/>
					<rect x="152.4" y="1.7" class="st44" width="1.8" height="22.2"/>
					<rect x="150.7" y="1.7" class="st44" width="1.8" height="22.2"/>
					<rect x="148.9" y="1.7" class="st45" width="1.8" height="22.2"/>
					<rect x="147.1" y="1.7" class="st46" width="1.8" height="22.2"/>
					<rect x="145.4" y="1.7" class="st47" width="1.8" height="22.2"/>
					<rect x="143.6" y="1.7" class="st48" width="1.8" height="22.2"/>
					<rect x="141.9" y="1.7" class="st48" width="1.8" height="22.2"/>
					<rect x="140.1" y="1.7" class="st49" width="1.8" height="22.2"/>
					<rect x="138.4" y="1.7" class="st49" width="1.8" height="22.2"/>
					<rect x="136.6" y="1.7" class="st50" width="1.8" height="22.2"/>
					<rect x="134.8" y="1.7" class="st51" width="1.8" height="22.2"/>
					<rect x="133.1" y="1.7" class="st52" width="1.8" height="22.2"/>
					<rect x="131.3" y="1.7" class="st53" width="1.8" height="22.2"/>
					<rect x="129.6" y="1.7" class="st53" width="1.8" height="22.2"/>
					<rect x="127.8" y="1.7" class="st54" width="1.8" height="22.2"/>
					<rect x="126.1" y="1.7" class="st55" width="1.8" height="22.2"/>
					<rect x="124.3" y="1.7" class="st55" width="1.8" height="22.2"/>
					<rect x="122.6" y="1.7" class="st56" width="1.8" height="22.2"/>
					<rect x="120.8" y="1.7" class="st56" width="1.8" height="22.2"/>
					<rect x="119" y="1.7" class="st57" width="1.8" height="22.2"/>
					<rect x="117.3" y="1.7" class="st58" width="1.8" height="22.2"/>
					<rect x="115.5" y="1.7" class="st58" width="1.8" height="22.2"/>
					<rect x="113.8" y="1.7" class="st59" width="1.8" height="22.2"/>
					<rect x="112" y="1.7" class="st60" width="1.8" height="22.2"/>
					<rect x="110.3" y="1.7" class="st61" width="1.8" height="22.2"/>
					<rect x="108.5" y="1.7" class="st62" width="1.8" height="22.2"/>
					<rect x="106.7" y="1.7" class="st63" width="1.8" height="22.2"/>
					<rect x="105" y="1.7" class="st64" width="1.8" height="22.2"/>
					<rect x="103.2" y="1.7" class="st64" width="1.8" height="22.2"/>
					<rect x="101.5" y="1.7" class="st65" width="1.8" height="22.2"/>
					<rect x="99.7" y="1.7" class="st66" width="1.8" height="22.2"/>
					<rect x="98" y="1.7" class="st66" width="1.8" height="22.2"/>
					<rect x="96.2" y="1.7" class="st67" width="1.8" height="22.2"/>
					<rect x="94.4" y="1.7" class="st68" width="1.8" height="22.2"/>
					<rect x="92.7" y="1.7" class="st69" width="1.8" height="22.2"/>
					<rect x="90.9" y="1.7" class="st70" width="1.8" height="22.2"/>
					<rect x="89.2" y="1.7" class="st70" width="1.8" height="22.2"/>
					<rect x="87.4" y="1.7" class="st71" width="1.8" height="22.2"/>
					<rect x="85.7" y="1.7" class="st72" width="1.8" height="22.2"/>
					<rect x="83.9" y="1.7" class="st72" width="1.8" height="22.2"/>
					<rect x="82.1" y="1.7" class="st73" width="1.8" height="22.2"/>
					<rect x="80.4" y="1.7" class="st74" width="1.8" height="22.2"/>
					<rect x="78.6" y="1.7" class="st74" width="1.8" height="22.2"/>
					<rect x="76.9" y="1.7" class="st75" width="1.8" height="22.2"/>
					<rect x="75.1" y="1.7" class="st76" width="1.8" height="22.2"/>
					<rect x="73.4" y="1.7" class="st77" width="1.8" height="22.2"/>
					<rect x="71.6" y="1.7" class="st78" width="1.8" height="22.2"/>
					<rect x="69.8" y="1.7" class="st78" width="1.8" height="22.2"/>
					<rect x="68.1" y="1.7" class="st79" width="1.8" height="22.2"/>
					<rect x="66.3" y="1.7" class="st80" width="1.8" height="22.2"/>
					<rect x="64.6" y="1.7" class="st80" width="1.8" height="22.2"/>
					<rect x="62.8" y="1.7" class="st81" width="1.8" height="22.2"/>
					<rect x="61.1" y="1.7" class="st82" width="1.8" height="22.2"/>
					<rect x="59.3" y="1.7" class="st82" width="1.8" height="22.2"/>
					<rect x="57.5" y="1.7" class="st83" width="1.8" height="22.2"/>
					<rect x="55.8" y="1.7" class="st84" width="1.8" height="22.2"/>
					<rect x="54" y="1.7" class="st85" width="1.8" height="22.2"/>
					<rect x="52.3" y="1.7" class="st86" width="1.8" height="22.2"/>
					<rect x="50.5" y="1.7" class="st87" width="1.8" height="22.2"/>
					<rect x="48.8" y="1.7" class="st88" width="1.8" height="22.2"/>
					<rect x="47" y="1.7" class="st88" width="1.8" height="22.2"/>
					<rect x="45.2" y="1.7" class="st89" width="1.8" height="22.2"/>
					<rect x="43.5" y="1.7" class="st90" width="1.8" height="22.2"/>
					<rect x="41.7" y="1.7" class="st90" width="1.8" height="22.2"/>
					<rect x="40" y="1.7" class="st91" width="1.8" height="22.2"/>
					<rect x="38.2" y="1.7" class="st92" width="1.8" height="22.2"/>
					<rect x="36.5" y="1.7" class="st92" width="1.8" height="22.2"/>
					<rect x="34.7" y="1.7" class="st93" width="1.8" height="22.2"/>
					<rect x="32.9" y="1.7" class="st94" width="1.8" height="22.2"/>
					<rect x="31.2" y="1.7" class="st94" width="1.8" height="22.2"/>
					<rect x="29.4" y="1.7" class="st95" width="1.8" height="22.2"/>
					<rect x="27.7" y="1.7" class="st95" width="1.8" height="22.2"/>
					<rect x="25.9" y="1.7" class="st96" width="1.8" height="22.2"/>
					<rect x="24.2" y="1.7" class="st97" width="1.8" height="22.2"/>
					<rect x="22.4" y="1.7" class="st97" width="1.8" height="22.2"/>
					<rect x="20.6" y="1.7" class="st98" width="1.8" height="22.2"/>
					<rect x="18.9" y="1.7" class="st99" width="1.8" height="22.2"/>
					<rect x="17.1" y="1.7" class="st99" width="1.8" height="22.2"/>
					<rect x="15.4" y="1.7" class="st100" width="1.8" height="22.2"/>
					<rect x="13.6" y="1.7" class="st101" width="1.8" height="22.2"/>
					<rect x="11.9" y="1.7" class="st101" width="1.8" height="22.2"/>
					<rect x="10.1" y="1.7" class="st102" width="1.8" height="22.2"/>
					<rect x="8.3" y="1.7" class="st103" width="1.8" height="22.2"/>
					<rect x="6.6" y="1.7" class="st103" width="1.8" height="22.2"/>
					<rect x="4.8" y="1.7" class="st104" width="1.8" height="22.2"/>
					<rect x="3.1" y="1.7" class="st105" width="1.8" height="22.2"/>
					<rect x="1.3" y="1.7" class="st106" width="1.8" height="22.2"/>
					<path class="st106" d="M1.3,1.7v22.2V1.7z"/>
				</g>
			</g>
		</g>
		<g id="Groupe_10" transform="translate(246.745 213.133)">
			<g id="Tracé_6">
				<path class="st1" d="M1.3,10.5c0,4.9,4,8.9,8.9,8.9s8.9-4,8.9-8.9c0-4.9-4-8.9-8.9-8.9C5.3,1.7,1.3,5.7,1.3,10.5
					C1.3,10.5,1.3,10.5,1.3,10.5z"/>
			</g>
		</g>
		<g id="Groupe_13" transform="translate(211.42 62.201)">
			<g id="Groupe_12" transform="translate(0 0)">
				<g id="Groupe_11">
					<g id="Rectangle_12">
						<path class="st107" d="M79.7,8.3H4.6C2.8,8.3,1.3,6.8,1.3,5c0,0,0,0,0,0l0,0c0-1.8,1.5-3.3,3.3-3.3h75.1C81.6,1.7,83,3.2,83,5
							c0,0,0,0,0,0l0,0C83,6.8,81.6,8.3,79.7,8.3C79.7,8.3,79.7,8.3,79.7,8.3z"/>
					</g>
				</g>
			</g>
		</g>
		<g id="Groupe_16" transform="translate(211.42 74.073)">
			<g id="Groupe_15" transform="translate(0 0)">
				<g id="Groupe_14">
					<g id="Rectangle_13">
						<path class="st107" d="M79.7,8.3H4.6C2.8,8.3,1.3,6.8,1.3,5c0,0,0,0,0,0l0,0c0-1.8,1.5-3.3,3.3-3.3h75.1C81.6,1.7,83,3.2,83,5
							c0,0,0,0,0,0l0,0C83,6.8,81.6,8.3,79.7,8.3C79.7,8.3,79.7,8.3,79.7,8.3z"/>
					</g>
				</g>
			</g>
		</g>
		<g id="Groupe_19" transform="translate(211.42 85.944)">
			<g id="Groupe_18" transform="translate(0 0)">
				<g id="Groupe_17">
					<g id="Rectangle_14">
						<path class="st107" d="M79.7,8.3H4.6C2.8,8.3,1.3,6.8,1.3,5c0,0,0,0,0,0l0,0c0-1.8,1.5-3.3,3.3-3.3l0,0h75.1
							C81.6,1.7,83,3.2,83,5l0,0C83,6.8,81.6,8.3,79.7,8.3C79.7,8.3,79.7,8.3,79.7,8.3z"/>
					</g>
				</g>
			</g>
		</g>
		<g id="Groupe_23" transform="translate(140.811 108.788)">
			<g id="Groupe_22">
				<g id="Groupe_21">
					<g id="Groupe_20">
						<g id="Tracé_7">
							<path class="st107" d="M110.5,88.1H15.7c-7.9,0-14.3-6.4-14.3-14.3V16c0-7.9,6.4-14.3,14.3-14.3h94.8
								c7.9,0,14.3,6.4,14.3,14.3v57.7C124.8,81.6,118.4,88.1,110.5,88.1z M15.7,3.5C8.7,3.5,3.1,9.1,3.1,16v57.7
								c0,6.9,5.6,12.5,12.5,12.5h94.8c6.9,0,12.5-5.6,12.5-12.5V16c0-6.9-5.6-12.5-12.5-12.5L15.7,3.5z"/>
						</g>
					</g>
				</g>
			</g>
		</g>
		<g id="Groupe_26" transform="translate(156.32 116.657)">
			<g id="Groupe_25" transform="translate(0 0)">
				<g id="Groupe_24">
					<g id="Rectangle_15">
						<path class="st107" d="M86.9,15.6H8.3c-3.8,0-6.9-3.1-6.9-6.9v0c0-3.8,3.1-6.9,6.9-6.9h78.6c3.8,0,6.9,3.1,6.9,6.9v0
							C93.8,12.5,90.7,15.6,86.9,15.6z"/>
					</g>
				</g>
			</g>
		</g>
		<g id="Rectangle_16">
			<rect x="185.4" y="286.5" class="st2" width="143" height="7.3"/>
		</g>
		<g id="Groupe_35" transform="translate(312.475 107.156)">
			<g id="Tracé_8">
				<path class="st108" d="M42.5,22.3c0,8.9-5.7,16.7-14.1,19.5c-0.1,0-0.2,0.1-0.4,0.1C17.2,45.3,5.6,39.3,2.2,28.4S4.9,6,15.8,2.6
					c10.9-3.4,22.4,2.7,25.8,13.5C42.2,18.1,42.5,20.2,42.5,22.3L42.5,22.3z"/>
			</g>
			<g id="Groupe_27" transform="translate(15.564 9.482)">
				<g id="Tracé_9">
					<path class="st109" d="M1.4,10.6c0,0-1.4-9.1,6.1-8.9s7.4,4.7,7.3,9.1s-3,4.1,0.2,10.3s-2.8,6.2-2.8,6.2l-4.7-6.5L1.4,10.6z"/>
				</g>
			</g>
			<g id="Groupe_28" transform="translate(15.651 10.251)">
				<g id="Tracé_10">
					<path class="st110" d="M6.6,1.8c0,0-5.1,0.8-5.3,8.1s1.4,8.8,5.8,7.3s5.9-9.1,6-10.3S13.5,0.9,6.6,1.8z"/>
				</g>
			</g>
			<g id="Groupe_29" transform="translate(11.241 28.357)">
				<g id="Tracé_11">
					<path class="st111" d="M20,8.9c0,1.9-1.1,3.7-2.9,4.6c-0.1,0-0.2,0.1-0.4,0.1c-5.1,1.6-10.5,1.1-15.3-1.2
						c-0.6-1.2,0.3-3,2.1-5.7C4.9,4.8,6.1,2.9,8.2,2c3.1-0.5,6.4-0.5,8.7,0.8C18.8,3.8,20,5.7,20,8.9z"/>
				</g>
			</g>
			<g id="Groupe_30" transform="translate(12.194 29.248)">
				<g id="Tracé_12">
					<path class="st111" d="M3.7,5.7L1.3,9.4c0,0,0.2-0.6,0.4-2.2c0.1-0.3,0.1-0.7,0.2-1c0-0.1,0-0.2,0.1-0.3l0,0
						c1-2.3,4.1-4,4.2-4.1L3.7,5.7z"/>
				</g>
			</g>
			<g id="Groupe_31" transform="translate(24.064 29.412)">
				<g id="Tracé_13">
					<path class="st110" d="M8.2,10.6C7,11.4,5.7,12,4.3,12.4c-0.1,0-0.2,0.1-0.4,0.1C3.4,11.2,3,10,2.9,9.7c0-0.1-0.1-0.3-0.2-0.5
						C2,7.6,1.5,5.9,1.3,4.2c0-1.2,0.4-2.1,1.5-2.4c0.4-0.1,0.8-0.1,1.2,0C5.3,2.1,6.2,3,6.6,4.2c0,0,0,0,0,0.1
						C6.8,4.8,6.9,5.3,7,5.9c0,0,0,0.1,0.1,0.2c0.1,0.3,0.2,0.8,0.4,1.6C7.7,8.5,8,9.5,8.2,10.6z"/>
				</g>
			</g>
			<g id="Groupe_32" transform="translate(17.823 22.325)">
				<g id="Tracé_14">
					<path class="st110" d="M7.9,1.8C7.4,2.6,7,7.8,7,7.8s-6.2,2.4-5.6,1c0.3-0.7,0.4-1.4,0.4-2.1c0-0.4,0-0.8-0.1-1.3
						c0-0.1,0-0.2,0-0.2S8.3,1,7.9,1.8z"/>
				</g>
			</g>
			<g id="Groupe_33" transform="translate(15.668 10.129)">
				<g id="Tracé_15">
					<path class="st109" d="M4.5,7.1c0,0,2.6,4.3,5,5.9s1.2,3,1.2,3S16.9,3,11,2.1s-9.5-1-9.7,7.9C1.3,10,4,7.1,4.5,7.1z"/>
				</g>
			</g>
			<g id="Groupe_34" transform="translate(18.18 25.613)">
				<g id="Tracé_16">
					<path class="st112" d="M4.9,1.7c-1,1.4-3.5,1.8-3.5,1.8l0,0c0-0.4,0-0.8-0.1-1.3C2.5,2.4,3.8,2.2,4.9,1.7z"/>
				</g>
			</g>
			<g id="Tracé_17">
				<path class="st113" d="M14.2,35L14.2,35c-0.1,0.5-0.2,0.9-0.2,1.4l0.9-1.4c0,0,1.6-2.4,2.2-3c0.4-0.4,0.9-0.8,1.4-1.1
					C18.4,30.9,15.2,32.5,14.2,35z"/>
			</g>
			<g id="Tracé_18">
				<path class="st111" d="M26.6,38.5c1.7-0.7,3.4-1.2,5.2-1.7c0,0-0.8-6.4-4.7-5.8S26.6,38.5,26.6,38.5z"/>
			</g>
			<g id="Tracé_19">
				<path class="st110" d="M19.4,30.4c0,0-2.9,4.5-1.9,4.9s6.4-0.5,8.7-4.8C24.1,29.5,21.6,29.4,19.4,30.4z"/>
			</g>
		</g>
		<g id="Rectangle_17">
			
				<rect x="83.3" y="237" transform="matrix(1 -7.999744e-03 7.999744e-03 1 -1.9045 0.8022)" class="st114" width="32.1" height="2.9"/>
		</g>
		<g id="Rectangle_18">
			
				<rect x="102.6" y="222.6" transform="matrix(0.2925 -0.9563 0.9563 0.2925 -130.288 272.0136)" class="st114" width="32.1" height="2.9"/>
		</g>
		<g id="Groupe_36" transform="translate(169.199 241.961)">
			<g id="Rectangle_19">
				<rect x="1.3" y="1.7" class="st115" width="2.5" height="77.1"/>
			</g>
		</g>
		<g id="Groupe_37" transform="translate(75.284 237.576)">
			<g id="Rectangle_20">
				<rect x="1.3" y="1.7" class="st116" width="110" height="4.4"/>
			</g>
		</g>
		<g id="Groupe_38" transform="translate(89.361 241.961)">
			<g id="Rectangle_21">
				<rect x="1.3" y="1.7" class="st115" width="2.5" height="77.1"/>
			</g>
		</g>
		<g id="Rectangle_22">
			<rect x="40.4" y="270.1" class="st117" width="3" height="38"/>
		</g>
		<g id="Tracé_20">
			<path class="st118" d="M79.7,303.6c0.1,1.2,0.2,2.4,0.6,3.6c0.4,1.4,1.2,7,2.2,7.8s4.3,2.8,3.8,4.9s-0.9,3.6-4.5,2.3
				s-6-2-6.6-5.1c-0.5-2.1-1.4-4.1-2.6-6l-2.6,6.4l-1.4-0.5c0,0,2.1-6.9,1.9-7.5s0.9-6.1,5.3-7.5S79.7,303.6,79.7,303.6z"/>
		</g>
		<g id="Tracé_21">
			<path class="st118" d="M103.5,305.7c0.5,1.1,1.1,2.2,1.9,3.2c0.9,1.2,3.7,6,5,6.4s5.1,1,5.4,3.2s0.5,3.7-3.3,3.8
				s-6.3,0.4-8.1-2.3c-1.3-1.8-2.9-3.3-4.7-4.6v6.9h-1.5c0,0-0.7-7.2-1.1-7.7s-1.4-6,2.1-8.9S103.5,305.7,103.5,305.7z"/>
		</g>
		<g id="Tracé_22">
			<path class="st110" d="M65.1,211.7c0,0,0.8-3,0.9-3.4c0.5-0.8,1.1-1.5,1.9-2c0.9-0.7,1.8-1.1,2.9-1.4c0.3,0,0.6,0.2,0.8,0.5
				c0.2,0.3,0.4,0.6,0.4,1c0.4,0.2,0.7,0.6,0.7,1.1c0.4,0.2,0.6,0.7,0.5,1.2c0,0,0.6,0.4,0.5,0.9c-0.4,0.4-0.7,0.7-1,1.1
				c-1.2,1.2-2.5,2.2-3.9,3C68.7,213.8,66.3,215.6,65.1,211.7z"/>
		</g>
		<g id="Tracé_23">
			<path class="st112" d="M68.7,209.4c0.2,0.5,0.3,1.1,0.3,1.7c-0.1,0.4,2.9,0.5,2.9,0.5S70.3,209,68.7,209.4z"/>
		</g>
		<g id="Tracé_24">
			<path class="st118" d="M35.7,216.8c1.2-1.9,2.8-2.8,7.8,0.7s3.8,2.8,5,3.9s6.5,3.9,6.5,3.9c1.6-1.6,3.2-3.4,4.6-5.2
				c1.7-2.5,5.1-9,5.1-9l4.9,3.6c0,0-9.5,17.2-11.5,18.4s-7.9-0.9-11-2.2s-6.4-3-7.8-3.4S32.6,221.8,35.7,216.8z"/>
		</g>
		<g id="Rectangle_23">
			
				<rect x="65.1" y="201.9" transform="matrix(0.214 -0.9768 0.9768 0.214 -142.1418 228.0748)" class="st119" width="11" height="0.9"/>
		</g>
		<g id="Tracé_25">
			<path class="st110" d="M70.5,205.2c0,0-2.5,2.1-2.2,2.5c0.1,0.2,0.4,0.4,0.7,0.4l-0.6,1.3c0,0,0.1,1.1,1.3,0.7c0,0,0,1,1.1,0.5
				c0,0,0.3,0.7,0.8,0.5c0.8-0.4,1.5-1,2.1-1.6c0,0,0.2-0.4-0.5-0.9c0.1-0.5-0.1-0.9-0.5-1.2c0-0.5-0.3-0.9-0.7-1.1
				c0,0,0-1.4-1.2-1.5C70.8,205,70.6,205.1,70.5,205.2z"/>
		</g>
		<g id="Tracé_26">
			<path class="st110" d="M66.1,208.4c0.9-0.8,1.8-1.4,2.9-1.9c0.3-0.1,0.6-0.1,0.8,0.1s0.1,0.8-0.6,1.5c-0.5,0.6-0.9,1.2-1.2,1.9
				C67.9,209.9,67,210.4,66.1,208.4z"/>
		</g>
		<g id="Tracé_27">
			<path class="st120" d="M59.1,227.3c0,0,1-3.6-0.2-6.4c0.2,1.7,0,3.4-0.8,4.9C57.2,227.3,59.1,227.3,59.1,227.3z"/>
		</g>
		<g id="Tracé_28">
			<path class="st121" d="M77.1,227.8c0,0,2.7-19.7,7.3-28.2h-6.8c0,0-7.6,13.4-6.2,27L77.1,227.8z"/>
		</g>
		<g id="Tracé_29">
			<path class="st110" d="M78.7,213.1c0,0,0.8-1.4,1-1.9s0.9,0.3,0.8,1S78.7,213.1,78.7,213.1z"/>
		</g>
		<g id="Tracé_30">
			<path class="st110" d="M84.7,216.4c-0.1,0.3-0.2,0.7-0.4,1c0,0-0.5,0.4-0.8,0.8c-0.1,0.1-0.2,0.2-0.2,0.3
				c-0.3,0.6-0.8,1.1-1.2,1.5c-0.7,0.5-3.3,2.2-3.3,2.2l-1.8-2l-1.5-1.5c0,0,1.2-4.7,1.8-5.2c0.1-0.1,0.1-0.1,0.2-0.2
				c0.4-0.3,0.9-0.6,1.4-0.8c0.1-0.1,1.3-0.7,1.7-0.6c0.4,0.1,0.8,0.5,0.9,0.9c0.5,0.2,1,0.6,1.3,1.1c0.6,0.2,1,0.7,1.1,1.3
				C83.8,215.3,84.8,215.8,84.7,216.4z"/>
		</g>
		<g id="Tracé_31">
			<path class="st110" d="M96.8,267.2l-7.7,17.3c-0.5,1.2-1,2.3-1.5,3.3c-0.5,1.2-0.9,2.1-1.2,2.8c-2,4.6-7.1,14.6-7.1,14.6
				s-3.8,0.1-4-3.1c0,0,3.6-7,3.6-11.8s0.7-19.3,5.3-22.4C89.9,264.1,93.6,263.4,96.8,267.2z"/>
		</g>
		<g id="Tracé_32">
			<path class="st110" d="M55.2,247.9c0.5,0.5,1.1,0.9,1.8,1.2c0.8,0.2,14.2,1.2,20.4,3.3s14.4,3.4,16,5.1s4.1,11.4,4,13.2
				s5.4,32.6,6.1,35c0.4,1.3-5,0.8-5,0.8s-7.6-18.2-9.2-21.5c-3-6.2-3.1-13.7-4.2-14.9s-13.3-3.8-20.3-3.8s-22.7,0.6-24.4-0.4
				s-12.2-7.9-7.8-17.1S55.2,247.9,55.2,247.9z"/>
		</g>
		<g id="Tracé_33">
			<path class="st118" d="M85.5,254.6L74.4,276c0,0-3.3-7.9-9.2-9.3S36.1,266,36.1,266s-10.7-13.5-1.5-20.6s19.9,1.1,19.9,1.1
				s2.2,2.4,3.3,2.4C65.4,249.4,73.7,250.8,85.5,254.6z"/>
		</g>
		<g id="Tracé_34">
			<path class="st110" d="M110.4,315.2c0,0-3.4,0.8-4.7,0s-5.7-8.3-7.2-8.7c0,0,1.4-2.9,5-0.8C103.5,305.7,109.4,314,110.4,315.2z"
				/>
		</g>
		<g id="Tracé_35">
			<path class="st110" d="M82.5,315c0,0-3.5-0.5-4.3-1.7s-2.2-9.8-3.4-10.8c0,0,2.4-2.1,4.9,1.1C79.7,303.6,82,313.5,82.5,315z"/>
		</g>
		<g id="Tracé_36">
			<path class="st110" d="M47.2,180.8c4.9-0.3,9.1,3.4,9.5,8.3c-0.1,1.1-0.4,2.3-0.7,3.4c-0.5,1.5,0.9,5.9,0.5,6.1
				c-0.6,0.2-1.2,0.4-1.8,0.5c0,0-1.6,4.8-3.3,4.8c-4.7-0.4-8.9-3.2-11.1-7.4C37.3,190.5,36.4,181.3,47.2,180.8z"/>
		</g>
		<g id="Tracé_37">
			<path class="st110" d="M49.2,201.7c0,0-0.2,0.7-0.4,1.7c-0.1,0.5-0.2,1.1-0.4,1.7c-0.4,1.7-0.4,3.5,0,5.2c0,0-3.7,1.3-6.7-4
				c0,0,1.3-5.7-0.4-9.2S49.2,201.7,49.2,201.7z"/>
		</g>
		<g id="Tracé_38">
			<path class="st122" d="M56.7,189.1c0,0-4.1,3.7-8.4,3.4c-4.4-0.3-7.3,5.2-7.3,5.2s-6.5-8.2-1.3-14.9S57.6,180.8,56.7,189.1z"/>
		</g>
		<g id="Tracé_39">
			<path class="st110" d="M46.3,192.4c0-0.7-0.5-1.4-1.3-1.4c-0.4,0-0.8,0.1-1.1,0.4c-1.4,1.1,0.5,5.1,1.6,4.7
				S46.3,193.3,46.3,192.4z"/>
		</g>
		<g id="Tracé_40">
			<path class="st112" d="M48.8,203.4c-0.1,0.5-0.2,1.1-0.4,1.7c-2-1.3-3.8-2.9-5.2-4.9C44.9,201.6,46.7,202.6,48.8,203.4z"/>
		</g>
		<g id="Tracé_41">
			<path class="st118" d="M58.9,223.6c-0.8,3.7-2.9,3.8-2.7,6.5s0.9,2.9-0.5,7.2c-0.3,0.8-0.5,1.7-0.6,2.5c0,0.1,0,0.2-0.1,0.3
				c-0.1,0.5-0.2,1-0.2,1.5c-0.1,0.9-0.2,1.8-0.3,2.6c0,1.4,0.5,2.7,1.4,3.7c0,0-13.7,8.2-23,7c0,0,2.4-10.2,3.8-13.7
				s0.9-19.7-0.1-23.2c-1.5-5.1,1.4-12.8,5.4-13.8l6.1,2.8c0,0,6.2,7.4,7.6,8.5S59.7,219.9,58.9,223.6z"/>
		</g>
		<g id="Tracé_42">
			<path class="st118" d="M38.6,208.6c1.7-1.4,4.2-3.9,7.9,1s6.3,8,7.1,9.5s7.7,11.4,7.7,11.4s3.7-3.4,5.8-5
				c2.4-1.8,8.8-8.5,8.8-8.5l4.2,4.7c0,0-14.7,16.4-17,16.9c-2.3,0.6-8.7-5.2-11.2-7.4s-9.6-10.3-10.8-11.1S34.1,212.4,38.6,208.6z"
				/>
		</g>
		<g id="Tracé_43">
			<path class="st112" d="M89.1,284.5c-0.5,1.2-1,2.3-1.5,3.3c-1.7-5.3-1.5-14.2-1.5-14.2C86.7,277.4,87.7,281,89.1,284.5z"/>
		</g>
		<g id="Rectangle_24">
			<rect x="17.9" y="266" class="st2" width="47.3" height="5.2"/>
		</g>
		<g id="Tracé_44">
			<path class="st2" d="M42.5,249.4c0,0-1.2,4.8,4.4,5.9s12.5,2.5,12.5,11.2H40L42.5,249.4z"/>
		</g>
		<g id="Tracé_45">
			<path class="st123" d="M71.4,196.9l0.8-1.5l0.1,1.7L71.4,196.9z"/>
		</g>
		<g id="Tracé_46">
			<path class="st2" d="M17.9,271.2L1.3,201.7c0,0,29.9-4.7,33.5,8.8c3.6,13.4,9.4,53.3,16.6,55.8S17.9,271.2,17.9,271.2z"/>
		</g>
		<g id="Tracé_47">
			<path class="st120" d="M56.3,235c0,0-0.3,1.3-0.6,2.3l-7.3-9.4L56.3,235z"/>
		</g>
		<g id="Tracé_48">
			<path class="st122" d="M38.1,191.8c0,0,2.9,7.6,2.1,9.7c2.6-1.2,4.2-4,3.7-6.9C43,189.6,38.1,191.8,38.1,191.8z"/>
		</g>
		<g id="Tracé_49">
			<path class="st118" d="M48.5,207.6v-1.5l-6.4-3.1l-2.2,2.6L48.5,207.6z"/>
		</g>
		<g id="Tracé_50">
			<path class="st124" d="M71.1,317.9c0,1.4-1.1,2.5-2.5,2.5s-2.5-1.1-2.5-2.5c0-1.4,1.1-2.5,2.5-2.5
				C70,315.5,71.1,316.6,71.1,317.9C71.1,317.9,71.1,317.9,71.1,317.9z"/>
		</g>
		<g id="Tracé_51">
			<path class="st117" d="M15.4,315.5l0.6,1.8l26.5-8.2l-1.3-3.6L15.4,315.5z"/>
		</g>
		<g id="Tracé_52">
			<path class="st117" d="M68.6,315.5l-0.6,1.8L41.5,309l1.2-3.8L68.6,315.5z"/>
		</g>
		<g id="Tracé_53">
			<path class="st117" d="M50,317v2.1L41.5,309l1.2-3.8L50,317z"/>
		</g>
		<g id="Tracé_54">
			<path class="st124" d="M50.2,317.9c0,1.4-1.1,2.5-2.5,2.5s-2.5-1.1-2.5-2.5c0-1.4,1.1-2.5,2.5-2.5
				C49.1,315.5,50.2,316.6,50.2,317.9C50.2,317.9,50.2,317.9,50.2,317.9z"/>
		</g>
		<g id="Ellipse_1">
			<circle class="st124" cx="15.4" cy="317.9" r="2.5"/>
		</g>
		<g id="Groupe_48" transform="translate(307.679 40.895)">
			<g id="Tracé_55">
				<path class="st108" d="M54.9,28.5c0,6.3-2.2,12.4-6.3,17.2c-0.9,1.1-1.9,2.1-3,3c-0.3,0.3-0.6,0.5-0.9,0.8
					c-0.4,0.3-0.7,0.6-1.1,0.8c-3.6,2.6-7.8,4.2-12.2,4.7c-0.8,0.1-1.6,0.2-2.4,0.2c-0.3,0-0.6,0-0.9,0c-0.9,0-1.7,0-2.6-0.1
					c-0.9-0.1-1.9-0.2-2.8-0.4c-5.2-1.1-9.9-3.6-13.7-7.4c-0.2-0.2-0.3-0.3-0.5-0.5c-0.6-0.6-1.2-1.3-1.7-2
					c-9-11.7-6.9-28.5,4.8-37.6s28.5-6.9,37.6,4.8C52.9,16.8,54.9,22.6,54.9,28.5z"/>
			</g>
			<g id="Groupe_47" transform="translate(5.59 11.752)">
				<g id="Groupe_39" transform="translate(3.748 23.585)">
					<g id="Tracé_56">
						<path class="st125" d="M36.2,7.9l-2,7.1c-3.6,2.6-7.8,4.2-12.2,4.7c-0.8,0.1-1.6,0.2-2.4,0.2c-0.3,0-0.6,0-0.9,0
							c-0.9,0-1.7,0-2.6-0.1c-0.9-0.1-1.9-0.2-2.8-0.4c-4-0.8-7.7-2.5-10.9-5C2.1,12,1.7,9.5,1.3,7c2-0.7,8.2-2.9,12.2-4.2l0.2-0.1
							c0.1,0,0.2-0.1,0.3-0.1l0.7-0.2c0.2-0.1,0.4-0.1,0.6-0.2C16,2,16.6,1.8,16.8,1.7l0,0l0.1,0h0l5.3,0.4l0.9,0.1l0.3,0
							c0,0,0,0,0.1,0c0.3,0.1,1.3,0.3,2.5,0.7h0C29.2,3.9,34.3,5.7,36.2,7.9z"/>
					</g>
				</g>
				<g id="Groupe_40" transform="translate(14.858 1.662)">
					<g id="Tracé_57">
						<path class="st110" d="M9.1,1.8c0,0,6.4,1.1,5.3,11.1s-6.7,9.1-7.1,9.1S1.6,22,1.3,9.8C1.3,9.8,1.2,0.8,9.1,1.8z"/>
					</g>
				</g>
				<g id="Groupe_41" transform="translate(17.01 17.835)">
					<g id="Tracé_58">
						<path class="st110" d="M9.7,2.8c0,0-0.2,4.1,0.2,5s-5.1,3.7-8.5,0.5c0.3-2,0.5-4,0.5-6.1C1.6,0.7,9.7,2.8,9.7,2.8z"/>
					</g>
				</g>
				<g id="Groupe_42" transform="translate(27.6 9.65)">
					<g id="Tracé_59">
						<path class="st110" d="M1.7,2c0,0,0.7-0.7,1,0s-1.1,4.1-1,4.3c0,0-0.1,0.3-0.3,0.1C1.4,5,1.5,3.5,1.7,2z"/>
					</g>
				</g>
				<g id="Groupe_43" transform="translate(13.927 9.356)">
					<g id="Tracé_60">
						<path class="st110" d="M2.3,2c0,0-0.7-0.8-1,0s0.7,4.1,0.9,4.3c0,0,0.2,0.3,0.4,0.2C2.6,5,2.5,3.5,2.3,2z"/>
					</g>
				</g>
				<g id="Groupe_44" transform="translate(14.411)">
					<g id="Tracé_61">
						<path class="st122" d="M15.3,10.8c-0.2,1.4-0.4,2.4-0.4,2.4L14,14.4c0-1,0-2.1-0.1-3.1c-0.1-0.2-0.1-0.4-0.2-0.7
							c-0.1-0.5-0.2-1.1-0.3-1.3C13.3,9,8,7.4,3.2,9.6c0,0,0,0.4,0,0.9c0,0.5-0.1,1.1-0.3,1.2c-0.5,0.2-0.3,3.1-0.3,3.1L1.9,14
							c0,0-0.2-1.6-0.4-3.3v0c0-0.4-0.1-0.8-0.1-1.3c-0.1-1.8,0.1-5.1,2.4-7c1.6-0.7,4.1-1.2,8.3,0c0.4,0,0.9,0.1,1.2,0.3
							C15.9,5.7,15.3,10.8,15.3,10.8z"/>
					</g>
				</g>
				<g id="Tracé_62">
					<path class="st112" d="M19.2,22.2c0.8,1,2.1,1.5,3.4,1.4c1.3,0.1,2.5-0.4,3.4-1.3c0,0-1.1,2.3-3.4,2.3S19.2,22.2,19.2,22.2z"/>
				</g>
				<g id="Tracé_63">
					<path class="st110" d="M17.7,26.3c1.1,1.8,2.9,3,5,3.3c2.1,0.2,3.8-2.4,4.7-3.7C24.2,24.7,20.7,24.8,17.7,26.3z"/>
				</g>
				<g id="Tracé_64">
					<path class="st121" d="M26.7,24.9c-1.2,1.4-2.5,2.6-4.1,3.5l1.7,2.7l2.9-5.3L26.7,24.9z"/>
				</g>
				<g id="Tracé_65">
					<path class="st121" d="M18.5,25.3c1.1,1.3,2.6,2.4,4.2,3.1l-1.9,2.7l-3.3-4.8L18.5,25.3z"/>
				</g>
				<g id="Tracé_66">
					<path class="st126" d="M22.6,28.4l1.5,2.3c-0.9,0.5-2.1,0.5-3-0.1L22.6,28.4z"/>
				</g>
				<g id="Tracé_67">
					<path class="st114" d="M41.7,31.1c0,0,0,0.1,0,0.1C41.5,31.8,40.8,34,40,37c-0.3,0.3-0.6,0.5-0.9,0.8c-0.4,0.3-0.7,0.6-1.1,0.8
						c-3.6,2.6-7.8,4.2-12.2,4.7c0.4-9.3,1.5-17.5,1.5-17.5c0.9,0.2,1.7,0.5,2.5,0.7h0c4,1,7.8,2.5,11.4,4.3c0,0,0,0,0,0
						C41.5,31,41.7,31.1,41.7,31.1z"/>
				</g>
				<g id="Tracé_68">
					<path class="st114" d="M17.2,43c-5.2-1.1-9.9-3.6-13.7-7.4c-0.2-0.2-0.3-0.3-0.5-0.5c-0.5-2-0.8-3.3-0.8-3.4l0,0
						c0,0,3.3-2.2,15-5.3v0C17.3,26.7,17.3,34.2,17.2,43z"/>
				</g>
				<g id="Tracé_69">
					<path class="st126" d="M23.5,30.9c-0.1,2.4-0.1,7.2-0.1,12.6c-0.3,0-0.6,0-0.9,0c-0.9,0-1.7,0-2.6-0.1
						c0.3-4.2,0.9-8.4,1.8-12.5c0.1-0.5,0.2-0.8,0.2-0.8l1.6,0.3C23.5,30.5,23.5,30.7,23.5,30.9z"/>
				</g>
				<g id="Groupe_45" transform="translate(37.772 29.116)">
					<g id="Tracé_70">
						<path class="st114" d="M5.3,4.8c-0.9,1.1-1.9,2.1-3,3C2,8.1,1.6,8.4,1.3,8.7l2.1-7l0,0c0,0,0,0,0,0C3.6,1.8,3.8,2,3.9,2.1
							C4.4,3,4.9,3.9,5.3,4.8z"/>
					</g>
				</g>
				<g id="Groupe_46" transform="translate(0 30.023)">
					<g id="Tracé_71">
						<path class="st114" d="M3.5,5.6C3.3,5.4,3.2,5.2,3,5.1c-0.6-0.6-1.2-1.3-1.7-2c0.2-0.5,0.5-1,0.9-1.4l0,0L3.5,5.6z"/>
					</g>
				</g>
			</g>
		</g>
		<g id="Rectangle_25">
			<path class="st127" d="M144.4,32.8h29.2c1.9,0,3.5,1.5,3.5,3.5v1.5c0,1.9-1.5,3.5-3.5,3.5h-29.2c-1.9,0-3.5-1.5-3.5-3.5v-1.5
				C141,34.3,142.5,32.8,144.4,32.8z"/>
		</g>
		<g id="Groupe_64" transform="translate(142.813 60.712)">
			<g id="Groupe_51">
				<g id="Groupe_50">
					<g id="Groupe_49">
						<g id="Tracé_72">
							<path class="st128" d="M13.1,35.4c9.1,3.1,18.9-1.8,22-10.9c0.6-1.7,0.9-3.5,0.9-5.3c0-0.4,0-0.8,0-1.2
								C35.4,8.5,27.3,1.2,17.7,1.7C8.2,2.2,0.8,10.4,1.3,20C1.7,27,6.4,33.2,13.1,35.4L13.1,35.4z M5.7,18.9
								c0.1-7.2,6-12.9,13.2-12.8c5.4,0.1,10.2,3.5,12,8.5v0c0.4,1.2,0.7,2.5,0.8,3.7c0,0.3,0,0.6,0,0.9c0.1,7.2-5.6,13.1-12.8,13.2
								c-7.2,0.1-13.1-5.6-13.2-12.8C5.6,19.3,5.6,19.1,5.7,18.9L5.7,18.9z"/>
						</g>
					</g>
				</g>
			</g>
			<g id="Groupe_54" transform="translate(11.773 25.29)">
				<g id="Groupe_53">
					<g id="Groupe_52">
						<g id="Tracé_73">
							<path class="st129" d="M17.2,1.7l3.4,2.7c-4.5,5.8-12.3,8.2-19.3,5.8L2.7,6C8,7.8,13.8,6.1,17.2,1.7L17.2,1.7z"/>
						</g>
					</g>
				</g>
			</g>
			<g id="Groupe_57" transform="translate(27.607 16.394)">
				<g id="Groupe_56">
					<g id="Groupe_55">
						<g id="Tracé_74">
							<path class="st130" d="M4,1.9l4.3-0.2c0,0.4,0,0.8,0,1.2c0,3.8-1.3,7.4-3.6,10.4l-3.4-2.7C3.1,8.4,4,5.6,4,2.8
								C4,2.5,4,2.2,4,1.9z"/>
						</g>
					</g>
				</g>
			</g>
			<g id="Groupe_60" transform="translate(29.549 11.413)">
				<g id="Groupe_59">
					<g id="Groupe_58">
						<g id="Tracé_75">
							<path class="st130" d="M2.1,6.9C2,5.6,1.8,4.4,1.3,3.2v0l4.1-1.5c0.6,1.6,0.9,3.3,1,5L2.1,6.9z"/>
						</g>
					</g>
				</g>
			</g>
			<g id="Groupe_63" transform="translate(6.906)">
				<g id="Groupe_62">
					<g id="Groupe_61">
						<g id="Tracé_76">
							<path class="st1" d="M1.3,5.2C9-0.6,19.8,1,25.6,8.6c1,1.4,1.9,2.9,2.4,4.5L24,14.6v0C21.5,7.8,14.1,4.4,7.3,6.8
								C6.1,7.3,4.9,7.9,3.9,8.7L1.3,5.2z"/>
						</g>
					</g>
				</g>
			</g>
		</g>
		<g id="Groupe_69" transform="translate(273.823 109.687)">
			<g id="Groupe_65" transform="translate(0 0)">
				<g id="Rectangle_26">
					<path class="st128" d="M5.9,1.7H16c2.6,0,4.6,2.1,4.6,4.6v10.1c0,2.6-2.1,4.6-4.6,4.6l0,0H5.9c-2.6,0-4.6-2.1-4.6-4.6V6.3
						C1.3,3.8,3.4,1.7,5.9,1.7C5.9,1.7,5.9,1.7,5.9,1.7z"/>
				</g>
			</g>
			<g id="Groupe_68" transform="translate(3.832 5.401)">
				<g id="Groupe_67">
					<g id="Groupe_66">
						<g id="Tracé_77">
							<path class="st131" d="M6.5,10.2L1.7,5.9C1.3,5.6,1.2,5,1.6,4.6c0.3-0.4,1-0.4,1.4-0.1l3.5,3L11.3,2c0.4-0.4,1-0.4,1.4-0.1
								c0.4,0.4,0.4,1,0.1,1.4L6.5,10.2z"/>
						</g>
					</g>
				</g>
			</g>
		</g>
		<g id="Groupe_74" transform="translate(273.823 134.429)">
			<g id="Groupe_70">
				<g id="Rectangle_27">
					<path class="st128" d="M5.9,1.7H16c2.6,0,4.6,2.1,4.6,4.6v10.1c0,2.6-2.1,4.6-4.6,4.6l0,0H5.9c-2.6,0-4.6-2.1-4.6-4.6V6.3
						C1.3,3.8,3.4,1.7,5.9,1.7C5.9,1.7,5.9,1.7,5.9,1.7z"/>
				</g>
			</g>
			<g id="Groupe_73" transform="translate(3.832 5.401)">
				<g id="Groupe_72">
					<g id="Groupe_71">
						<g id="Tracé_78">
							<path class="st131" d="M6.5,10.2L1.7,5.9C1.3,5.6,1.2,5,1.6,4.6c0.3-0.4,1-0.4,1.4-0.1l3.5,3L11.3,2c0.4-0.4,1-0.4,1.4-0.1
								c0.4,0.4,0.4,1,0.1,1.4c0,0,0,0,0,0L6.5,10.2z"/>
						</g>
					</g>
				</g>
			</g>
		</g>
		<g id="Groupe_76" transform="translate(273.823 159.171)">
			<g id="Groupe_75">
				<g id="Rectangle_28">
					<path class="st128" d="M5.9,1.7H16c2.6,0,4.6,2.1,4.6,4.6v10.1c0,2.6-2.1,4.6-4.6,4.6H5.9c-2.6,0-4.6-2.1-4.6-4.6V6.3
						C1.3,3.8,3.4,1.7,5.9,1.7z"/>
				</g>
			</g>
		</g>
		<g id="Groupe_93" transform="translate(198.5 139.573)">
			<g id="Groupe_79" transform="translate(4.66 148.493)">
				<g id="Groupe_78">
					<g id="Groupe_77">
						<g id="Tracé_79">
							<path class="st132" d="M10.8,6.4c0,0,0.6,3.9,1,5.6s4,6.5,3.9,7.3s-1.6,1.8-2.4,1.1s-5.9-5.9-7-8.1S1.7,7.1,1.3,6.1
								s4.3-3.9,5.4-4.4S10.8,6.4,10.8,6.4z"/>
						</g>
					</g>
				</g>
			</g>
			<g id="Tracé_80">
				<path class="st110" d="M6.4,85.3c0.2,1,0.4,2,0.8,3c0.5,1,1,2,1.4,3.1c0.1,0.3,0.7,2.7,0.8,3s-0.6,0.8-1,0.1
					c-0.4-0.8-0.7-1.6-1-2.4c-0.2-0.5-0.8-2-1-1.8c-0.1,1-0.2,1.9-0.2,2.9c0.1,1,0.2,1.9,0.5,2.9c0.2,0.7,1.1,3.5,0.7,3.7
					s-0.7,0.1-1.1-0.7c0,0-0.7,0.4-1.2-0.5c0,0-0.7,0.2-1.1-1c-0.3-0.2-0.5-0.4-0.7-0.7c-0.6-1.9-1-3.8-1.2-5.7
					c0-1.5,0.4-2.6,0.3-3.7c-0.1-1.1-0.3-2.3-0.6-3.4L6.4,85.3z"/>
			</g>
			<g id="Tracé_81">
				<path class="st133" d="M12.8,149.6l-1.4,0.6l4,4.7l1.3-1.5L12.8,149.6z"/>
			</g>
			<g id="Tracé_82">
				<path class="st132" d="M26.9,159.5c-0.4,1.1-1,2.1-1.7,3c-0.8,0.9-3.7,2.4-3.7,4.9c0,2.8,4.9,2,6.8,1.9s2.1-1.6,2.9-3.1
					s1.6-1.3,1.8-2.6c0-1.4-0.2-2.8-0.6-4.1L26.9,159.5z"/>
			</g>
			<g id="Tracé_83">
				<path class="st133" d="M26.8,158.7l-0.1,1.3c1.9,0.6,3.9,0.7,5.9,0.1l-0.2-1.8L26.8,158.7z"/>
			</g>
			<g id="Tracé_84">
				<path class="st134" d="M43.5,125.4c0-3.4-2.5-33.1-2.4-34.2c0.1-0.7-0.7-7.8-1.3-12.7c0,0,0-0.1,0-0.1c0,0,0,0,0,0
					c-0.2-1.4-0.3-2.5-0.4-3.3l-0.1-0.8c0-0.1,0-0.2,0-0.2s-16-3.2-24.3-0.2c-0.3,0.1-0.7,0.3-1,0.4c0,0,0,0.1-0.1,0.4
					c-0.1,0.6-0.3,1.9-0.5,3.6c0,0.3-0.1,0.6-0.1,0.9c-1.2,9-0.4,18.7,1.6,28.6c2,9.8,3.1,17.1,3.4,18.5c0.3,1.9,1.1,7,2,12.6
					c-4.4,5.4-8.2,10.1-7.9,10.5c0.7,1.1,6.9,7.5,7.2,6.4c0,0,1.1-1.3,2.9-3.3c0.6,3.4,0.9,5.8,0.9,5.8s6.8,1.6,9.3,0.1
					c0,0-1-7.5-2-15.6C37,135.5,43.5,127.2,43.5,125.4z M28.5,123c-0.1-4.6-2.1-30.2-1.9-30.2c1,0,6.6,24.4,6.8,27.8
					c0,0.7-0.8,2.3-2.3,4.3c-0.6,0.9-1.4,2-2.2,3.1l0,0C28.7,125.5,28.5,123.7,28.5,123L28.5,123z"/>
			</g>
			<g id="Groupe_80" transform="translate(9.997 23.585)">
				<g id="Tracé_85">
					<path class="st125" d="M36.2,7.9l-4.3,15.5c-0.1,0.5-0.3,1.1-0.5,1.8l0,0c0,0,0,0,0,0c-1,3.8-1.6,7.7-1.9,11.6
						c-0.2,3.2,0.4,16,0.4,16c-5.3,1.6-10.8,2.3-16.3,1.8c0,0-10.5-0.2-9.6-6.7c2.3-17,0-24-0.2-25.8c0,0-1.4-8.3-2.4-15.2
						c3-1.1,15.6-5.3,15.6-5.3l6.5,0.5C23.4,2.2,33.3,4.6,36.2,7.9z"/>
				</g>
			</g>
			<g id="Groupe_81" transform="translate(21.106 1.663)">
				<g id="Tracé_86">
					<path class="st110" d="M9.1,1.8c0,0,6.4,1.1,5.3,11.1s-6.7,9.1-7.1,9.1S1.6,22,1.3,9.8C1.3,9.8,1.2,0.8,9.1,1.8z"/>
				</g>
			</g>
			<g id="Groupe_82" transform="translate(23.258 17.835)">
				<g id="Tracé_87">
					<path class="st110" d="M9.7,2.8c0,0-0.2,4.1,0.2,5s-5.1,3.7-8.5,0.5c0.3-2,0.5-4,0.5-6.1C1.6,0.7,9.7,2.8,9.7,2.8z"/>
				</g>
			</g>
			<g id="Groupe_83" transform="translate(33.848 9.65)">
				<g id="Tracé_88">
					<path class="st110" d="M1.7,2c0,0,0.7-0.7,1,0s-1.1,4.1-1,4.3c0,0-0.1,0.3-0.3,0.1C1.4,5,1.5,3.5,1.7,2z"/>
				</g>
			</g>
			<g id="Groupe_84" transform="translate(20.175 9.356)">
				<g id="Tracé_89">
					<path class="st110" d="M2.3,2c0,0-0.7-0.8-1,0s0.7,4.1,0.9,4.3c0,0,0.2,0.3,0.4,0.2C2.6,5,2.5,3.5,2.3,2z"/>
				</g>
			</g>
			<g id="Groupe_85" transform="translate(20.659)">
				<g id="Tracé_90">
					<path class="st122" d="M15.3,10.8c-0.2,1.4-0.4,2.4-0.4,2.4L14,14.4c0-1,0-2.1-0.1-3.1c-0.1-0.2-0.1-0.4-0.2-0.7
						c-0.1-0.5-0.2-1.1-0.3-1.3C13.3,9,8,7.4,3.2,9.6c0,0,0,0.4,0,0.9c0,0.5-0.1,1.1-0.3,1.2c-0.5,0.2-0.3,3.1-0.3,3.1L1.9,14
						c0,0-0.2-1.6-0.4-3.3v0c0-0.4-0.1-0.8-0.1-1.3c-0.1-1.8,0.1-5.1,2.4-7c1.6-0.7,4.1-1.2,8.3,0c0.4,0,0.8,0.1,1.2,0.3
						C15.9,5.7,15.3,10.8,15.3,10.8z"/>
				</g>
			</g>
			<g id="Tracé_91">
				<path class="st112" d="M25.5,22.2c0.8,1,2.1,1.5,3.4,1.4c1.3,0.1,2.5-0.4,3.4-1.3c0,0-1.1,2.3-3.4,2.3S25.5,22.2,25.5,22.2z"/>
			</g>
			<g id="Tracé_92">
				<path class="st110" d="M23.9,26.3c1.1,1.8,2.9,3,5,3.3c2.1,0.2,3.8-2.4,4.7-3.7C30.4,24.7,26.9,24.8,23.9,26.3z"/>
			</g>
			<g id="Tracé_93">
				<path class="st121" d="M33,24.9c-1.2,1.4-2.5,2.6-4.1,3.5l1.7,2.7l2.9-5.3L33,24.9z"/>
			</g>
			<g id="Tracé_94">
				<path class="st121" d="M24.7,25.3c1.1,1.3,2.6,2.4,4.2,3.1L27,31.2l-3.3-4.8L24.7,25.3z"/>
			</g>
			<g id="Tracé_95">
				<path class="st126" d="M28.9,28.4l1.5,2.3c-0.9,0.5-2.1,0.5-3-0.1L28.9,28.4z"/>
			</g>
			<g id="Tracé_96">
				<path class="st132" d="M13.6,79.4c0,0,8,3,26.1,0.2l-0.2-3.3c0,0-10.5,3.1-25.5,0.4L13.6,79.4z"/>
			</g>
			<g id="Tracé_97">
				<path class="st114" d="M33.6,25.8c-1.1,8.6-1.6,17.3-1.6,26c0.3,12.1,9.4,34,9.4,34s4-3.9,5.7-6c0,0-6.2-17.9-6.1-21.1
					s7-27.6,7-27.6S44.1,28.6,33.6,25.8z"/>
			</g>
			<g id="Tracé_98">
				<path class="st114" d="M23.5,26.4c0,0,0,13.4-0.2,25.4s-1.8,34.5-1.8,34.5s-8.9-1.4-10.6-3.6c0,0,3.6-20.9,3.5-24.1
					s-5.8-27-5.8-27S11.8,29.5,23.5,26.4z"/>
			</g>
			<g id="Rectangle_29">
				<rect x="24.6" y="77.3" class="st135" width="4.9" height="3.7"/>
			</g>
			<g id="Tracé_99">
				<path class="st126" d="M28.2,30.1c0,0-2.2,7.5-2.4,22.4s0.3,19.2,0.3,19.2l1.7,3.4l2.3-3.5c0,0-0.7-34.3-0.3-41.1L28.2,30.1z"/>
			</g>
			<g id="Groupe_90" transform="translate(34.188 76.169)">
				<g id="Groupe_89">
					<g id="Groupe_88">
						<g id="Groupe_87">
							<g id="Groupe_86">
								<g id="Tracé_100">
									<path class="st110" d="M6.6,9.8c0.3-0.2,0.5-0.4,0.7-0.6c0,0,0.2-0.5,0.4-0.8c0-0.1,0.1-0.2,0.2-0.3
										c0.4-0.4,0.7-0.9,0.9-1.4C9,5.5,9.1,4.2,9.2,3L7.3,2.4L5.6,1.7c-1.4,1-2.7,2.2-4,3.4c0,0.1-0.1,0.1-0.1,0.2
										C1.5,5.7,1.4,6.1,1.4,6.5c0,0.1-0.2,1.2,0,1.4c0.3,0.3,0.7,0.4,1.1,0.4C2.9,8.7,3.4,8.9,3.9,9c0.4,0.4,1,0.5,1.5,0.4
										C5.4,9.4,6.1,10,6.6,9.8z"/>
								</g>
							</g>
						</g>
					</g>
				</g>
			</g>
			<g id="Groupe_91" transform="translate(37.078 29.398)">
				<g id="Tracé_101">
					<path class="st114" d="M1.3,48.1c1.8,1.5,3.9,2.7,6.1,3.4c0,0,11.8-19.3,12-20.7c0.1-1.3-5.9-27.5-8.6-29.2L5.9,16.1
						c0.3-0.1,5.6,11,5.6,12.4C11.6,30.4,1.3,48.1,1.3,48.1z"/>
				</g>
			</g>
			<g id="Groupe_92" transform="translate(0 30.025)">
				<g id="Tracé_102">
					<path class="st114" d="M7.8,57.9c-2.2,0.3-4.3,0.4-6.5,0.3c0,0,1.5-24.8,1.3-26.2C2.5,30.7,5.8,3.4,8.5,1.7l4.8,14.6
						C13,16.2,10.1,31.2,10,32.6C10,34.5,7.8,57.9,7.8,57.9z"/>
				</g>
			</g>
			<g id="Tracé_103">
				<path class="st134" d="M35.3,80.3l7.6,3.9l-3,5.5l-6.5-6.9L35.3,80.3z"/>
			</g>
			<g id="Tracé_104">
				<path class="st132" d="M31.2,125L30.4,140L29,128l0,0C29.8,126.9,30.5,125.9,31.2,125z"/>
			</g>
		</g>
		<g id="Groupe_94" transform="translate(190.065 79.784)">
			<g id="Rectangle_30">
				<rect x="1.3" y="1.7" class="st128" width="4.4" height="14.6"/>
			</g>
		</g>
		<g id="Tracé_105">
			<path class="st108" d="M355,178.5c0,11.4-9.2,20.6-20.6,20.6c-11.4,0-20.6-9.2-20.6-20.6c0-11.4,9.2-20.6,20.6-20.6
				C345.7,157.9,355,167.1,355,178.5C355,178.5,355,178.5,355,178.5z"/>
		</g>
		<g id="Groupe_95" transform="translate(182.785 83.868)">
			<g id="Rectangle_31">
				<rect x="1.3" y="1.7" class="st128" width="4.4" height="10.5"/>
			</g>
		</g>
		<g id="Groupe_96" transform="translate(197.345 73.034)">
			<g id="Rectangle_32">
				<rect x="1.3" y="1.7" class="st128" width="4.4" height="21.3"/>
			</g>
		</g>
		<g id="Groupe_185" transform="translate(311.186 174.729)">
			<g id="Groupe_97" transform="translate(71.205 61.072)">
				<g id="Rectangle_33">
					<rect x="1.3" y="1.7" class="st136" width="28.6" height="1.7"/>
				</g>
			</g>
			<g id="Groupe_98" transform="translate(93.441 67.181)">
				<g id="Rectangle_34">
					<rect x="1.3" y="1.7" class="st115" width="2.5" height="77.1"/>
				</g>
			</g>
			<g id="Groupe_99" transform="translate(55.819 60.592)">
				<g id="Rectangle_35">
					<rect x="1.3" y="1.7" class="st137" width="19.9" height="2.4"/>
				</g>
			</g>
			<g id="Groupe_100" transform="translate(61.988 39.928)">
				<g id="Rectangle_36">
					<rect x="1.3" y="1.7" class="st138" width="7.5" height="22.8"/>
				</g>
			</g>
			<g id="Groupe_101" transform="translate(0 62.796)">
				<g id="Rectangle_37">
					<rect x="1.3" y="1.7" class="st116" width="110" height="4.4"/>
				</g>
			</g>
			<g id="Groupe_102" transform="translate(118.981 28.889)">
				<g id="Tracé_106">
					<path class="st139" d="M13.5,9.1c0,0,1.2,16.9-2.1,18.9c-2.1,1.3-10.3,5.5-10.1,6.3S6,41.4,6,41.4S21.8,31,22.3,27.7
						c0.5-3.2-0.8-24.7-3-25.7c-1.6-0.7-2.5-0.1-4.5,1.4C11.9,5.5,13.5,9.1,13.5,9.1z"/>
				</g>
			</g>
			<g id="Groupe_105" transform="translate(111.673 133.333)">
				<g id="Groupe_104">
					<g id="Groupe_103">
						<g id="Tracé_107">
							<path class="st140" d="M1.3,2.1c0,0,0.5,3.4,0.6,3.9s5.5-0.3,5.5-0.3l0.4-4.1C7.8,1.7,2,1.7,1.3,2.1z"/>
						</g>
					</g>
				</g>
			</g>
			<g id="Groupe_108" transform="translate(102.78 137.035)">
				<g id="Groupe_107">
					<g id="Groupe_106">
						<g id="Tracé_108">
							<path class="st134" d="M10.7,1.9c-1,1.2-2.1,2.1-3.4,3C5.7,5.8,3.1,6.1,2.1,7.1c-0.7,0.7-2.6,3.6,4.3,3.5S16.6,11,17.3,9.9
								s-1.1-8.2-1.1-8.2S14.6,2.3,10.7,1.9z"/>
						</g>
					</g>
				</g>
			</g>
			<g id="Groupe_111" transform="translate(77.009 133.365)">
				<g id="Groupe_110">
					<g id="Groupe_109">
						<g id="Tracé_109">
							<path class="st140" d="M1.3,2.1c0,0,0.5,3.4,0.6,3.9s5.5-0.3,5.5-0.3l0.4-4.1C7.8,1.7,2,1.7,1.3,2.1z"/>
						</g>
					</g>
				</g>
			</g>
			<g id="Groupe_114" transform="translate(64.934 137.068)">
				<g id="Groupe_113">
					<g id="Groupe_112">
						<g id="Tracé_110">
							<path class="st134" d="M13.9,1.9c-1,1.2-2.1,2.1-3.4,3C8.9,5.8,2.8,6.5,1.8,7.4c-0.7,0.7-1.9,3.4,7.8,3.1
								c6.9-0.2,10.2,0.4,10.9-0.7s-1.1-8.2-1.1-8.2S17.9,2.3,13.9,1.9z"/>
						</g>
					</g>
				</g>
			</g>
			<g id="Groupe_117" transform="translate(72.662 74.794)">
				<g id="Groupe_116">
					<g id="Groupe_115">
						<g id="Tracé_111">
							<path class="st134" d="M57.8,1.7c0,0-19.7,3.3-24.1,4S5.1,12.4,2.1,14.2c-2.4,1.5,1.3,36.4,2.1,49.7h9.5l0.7-40
								c11.4,0.3,19.5-2.7,27.8-1.4c8.3,1.3,15.2,3,20.5-4C62.7,18.5,62.9,3.2,57.8,1.7z"/>
						</g>
					</g>
				</g>
			</g>
			<g id="Groupe_120" transform="translate(106.797 79.047)">
				<g id="Groupe_119">
					<g id="Groupe_118">
						<g id="Tracé_112">
							<path class="st134" d="M4.3,59.7l9.2-0.6l0.9-39.4c3.5,0.1,7.1-0.1,10.5-0.7l7.5-17.4C25.9,3,4.9,8.3,2.1,10
								C-0.3,11.4,3.4,46.4,4.3,59.7z"/>
						</g>
					</g>
				</g>
			</g>
			<g id="Groupe_123" transform="translate(108.614 0.713)">
				<g id="Groupe_122">
					<g id="Groupe_121">
						<g id="Tracé_113">
							<path class="st110" d="M12.8,2c0,0-7.2-2-10,3.6S1.3,21.8,4.9,22.8s8.9-0.2,10.4-3.6s2.7-8.4,2.4-11.6S14.7,2.8,12.8,2z"/>
						</g>
					</g>
				</g>
			</g>
			<g id="Groupe_126" transform="translate(113.717 15.848)">
				<g id="Groupe_125">
					<g id="Groupe_124">
						<g id="Tracé_114">
							<path class="st110" d="M1.7,6.6c0,0,0.1,4.3-0.4,5.2c-0.5,0.9,10,0.7,10,0.7S9.7,7.3,10.7,3C11.6-1.3,1.7,6.6,1.7,6.6z"/>
						</g>
					</g>
				</g>
			</g>
			<g id="Groupe_129" transform="translate(108.39)">
				<g id="Groupe_128">
					<g id="Groupe_127">
						<g id="Tracé_115">
							<path class="st122" d="M16.6,17.2c0,0-0.6,1.1-3.3,1S7,14.7,5.8,14.4s-1.2-0.9-1.2-0.9L4,14.5l-1.2,0.2c0,0,0.8-3.3-0.9-4.4
								S2.6-0.2,11.5,2c0,0,6.8,1.2,6.9,5S17.9,15.2,16.6,17.2z"/>
						</g>
					</g>
				</g>
			</g>
			<g id="Groupe_132" transform="translate(113.179 23.011)">
				<g id="Groupe_131">
					<g id="Groupe_130">
						<g id="Tracé_116">
							<path class="st136" d="M1.3,4.5c0,0,0-1.7,0.8-1.9s8.3-1.2,9.2-0.8l0.4,2.3C11.8,4.1,9.9,5.2,1.3,4.5z"/>
						</g>
					</g>
				</g>
			</g>
			<g id="Groupe_135" transform="translate(110.923 9.067)">
				<g id="Groupe_134">
					<g id="Groupe_133">
						<g id="Tracé_117">
							<path class="st110" d="M1.4,3.6c0.2-1.4,1.8-3.1,2.7-0.8S3.5,8.2,2.5,8S1.1,5.5,1.4,3.6z"/>
						</g>
					</g>
				</g>
			</g>
			<g id="Groupe_138" transform="translate(81.834 46.297)">
				<g id="Groupe_137">
					<g id="Groupe_136">
						<g id="Tracé_118">
							<path class="st114" d="M1.4,1.7C1.4,1.7,1.4,1.7,1.4,1.7C1.3,1.7,1.3,1.7,1.4,1.7z"/>
						</g>
					</g>
				</g>
			</g>
			<g id="Groupe_141" transform="translate(122.173 2.072)">
				<g id="Groupe_140">
					<g id="Groupe_139">
						<g id="Tracé_119">
							<path class="st122" d="M1.3,1.7c0,0,8.8-0.4,1.5,13.3L1.3,1.7z"/>
						</g>
					</g>
				</g>
			</g>
			<g id="Groupe_143" transform="translate(113.474 131.295)">
				<g id="Groupe_142">
					<g id="Tracé_120">
						<path class="st117" d="M29.6,12.1L29,14L1.3,5.4l1.3-3.7L29.6,12.1z"/>
					</g>
				</g>
			</g>
			<g id="Groupe_145" transform="translate(112.526 103.665)">
				<g id="Groupe_144" transform="translate(0 0)">
					<g id="Rectangle_38">
						<rect x="1.3" y="1.7" class="st117" width="3.1" height="30"/>
					</g>
				</g>
			</g>
			<g id="Groupe_147" transform="translate(104.833 102.068)">
				<g id="Groupe_146" transform="translate(0 0)">
					<g id="Rectangle_39">
						<rect x="1.3" y="1.7" class="st141" width="18.5" height="1.8"/>
					</g>
				</g>
			</g>
			<g id="Groupe_149" transform="translate(86.186 131.062)">
				<g id="Groupe_148">
					<g id="Tracé_121">
						<path class="st117" d="M1.3,12.4L2,14.2l27.6-8.6l-1.2-4L1.3,12.4z"/>
					</g>
				</g>
			</g>
			<g id="Groupe_151" transform="translate(105.658 131.062)">
				<g id="Groupe_150">
					<g id="Tracé_122">
						<path class="st117" d="M1.3,14v2.1l8.8-10.5l-1.2-4L1.3,14z"/>
					</g>
				</g>
			</g>
			<g id="Groupe_153" transform="translate(83.604 141.72)">
				<g id="Groupe_152">
					<g id="Tracé_123">
						<path class="st124" d="M1.3,4.3c0,1.4,1.2,2.6,2.6,2.6c1.4,0,2.6-1.2,2.6-2.6c0-1.4-1.2-2.6-2.6-2.6c0,0,0,0,0,0
							C2.5,1.7,1.3,2.8,1.3,4.3L1.3,4.3z"/>
					</g>
				</g>
			</g>
			<g id="Groupe_155" transform="translate(105.438 141.72)">
				<g id="Groupe_154">
					<g id="Tracé_124">
						<path class="st124" d="M1.3,4.3c0,1.4,1.2,2.6,2.6,2.6c1.4,0,2.6-1.2,2.6-2.6c0-1.4-1.2-2.6-2.6-2.6c0,0,0,0,0,0
							C2.5,1.7,1.3,2.8,1.3,4.3z"/>
					</g>
				</g>
			</g>
			<g id="Groupe_157" transform="translate(139.18 141.72)">
				<g id="Groupe_156">
					<g id="Tracé_125">
						<path class="st124" d="M1.3,4.3c0,1.4,1.2,2.6,2.6,2.6c1.4,0,2.6-1.2,2.6-2.6c0-1.4-1.2-2.6-2.6-2.6c0,0,0,0,0,0
							C2.5,1.7,1.3,2.8,1.3,4.3z"/>
					</g>
				</g>
			</g>
			<g id="Groupe_158" transform="translate(92.03 95.362)">
				<g id="Rectangle_40">
					<path class="st136" d="M41.9,8.4H4.7C2.8,8.4,1.3,6.9,1.3,5l0,0c0-1.9,1.5-3.4,3.4-3.4h37.2c1.9,0,3.4,1.5,3.4,3.4l0,0
						C45.2,6.9,43.7,8.4,41.9,8.4z"/>
				</g>
			</g>
			<g id="Groupe_159" transform="translate(14.077 67.181)">
				<g id="Rectangle_41">
					<rect x="1.3" y="1.7" class="st115" width="2.5" height="77.1"/>
				</g>
			</g>
			<g id="Groupe_160" transform="translate(33.282 5.125)">
				<g id="Rectangle_42">
					<path class="st142" d="M62.5,47.5H5.1c-2.1,0-3.8-1.7-3.8-3.8c0,0,0,0,0,0V5.5c0-2.1,1.7-3.8,3.8-3.8h57.4
						c2.1,0,3.8,1.7,3.8,3.8c0,0,0,0,0,0v38.2C66.3,45.8,64.6,47.5,62.5,47.5C62.5,47.5,62.5,47.5,62.5,47.5z"/>
				</g>
			</g>
			<g id="Groupe_161" transform="translate(35.825 7.601)">
				<g id="Rectangle_43">
					<rect x="1.3" y="1.7" class="st127" width="59.8" height="36.2"/>
				</g>
			</g>
			<g id="Groupe_162" transform="translate(35.825 7.601)">
				<g id="Rectangle_44">
					<rect x="1.3" y="1.7" class="st143" width="59.8" height="2.9"/>
				</g>
			</g>
			<g id="Groupe_163" transform="translate(38.038 12.642)">
				<g id="Rectangle_45">
					<path class="st143" d="M6.2,30.6H3.7c-1.3,0-2.3-1-2.3-2.3l0,0V4c0-1.3,1-2.3,2.3-2.3h0h2.5c1.3,0,2.3,1,2.3,2.3v24.2
						C8.5,29.5,7.5,30.6,6.2,30.6z"/>
				</g>
			</g>
			<g id="Groupe_164" transform="translate(80.816 12.642)">
				<g id="Rectangle_46">
					<path class="st143" d="M13.2,4.4H2.6c-0.7,0-1.3-0.6-1.3-1.3V3c0-0.7,0.6-1.3,1.3-1.3h10.6c0.7,0,1.3,0.6,1.3,1.3v0.1
						C14.5,3.8,13.9,4.4,13.2,4.4z"/>
				</g>
			</g>
			<g id="Groupe_165" transform="translate(80.816 17.112)">
				<g id="Rectangle_47">
					<path class="st143" d="M11.9,26.8H3.9c-1.4,0-2.6-1.2-2.6-2.6V4.3c0-1.4,1.2-2.6,2.6-2.6h7.9c1.4,0,2.6,1.2,2.6,2.6v19.9
						C14.5,25.7,13.3,26.8,11.9,26.8z"/>
				</g>
			</g>
			<g id="Groupe_166" transform="translate(63.654 45.033)">
				<g id="Tracé_126">
					<path class="st144" d="M1.3,3.8c0,1.2,0.9,2.1,2.1,2.1s2.1-0.9,2.1-2.1c0-1.2-0.9-2.1-2.1-2.1C2.3,1.7,1.3,2.6,1.3,3.8
						C1.3,3.8,1.3,3.8,1.3,3.8z"/>
				</g>
			</g>
			<g id="Groupe_167" transform="translate(52.306 56.969)">
				<g id="Tracé_127">
					<path class="st145" d="M1.3,7.6V6.8c0,0,1.1-5.1,9.3-5.1s7.9,5.9,7.9,5.9H1.3z"/>
				</g>
			</g>
			<g id="Groupe_169" transform="translate(55.044 54.582)">
				<g id="Groupe_168">
					<g id="Tracé_128">
						<path class="st110" d="M15.9,4.8c-0.8-0.1-1.6-0.2-2.4-0.5c-0.6-0.4-4.5-3-5.4-2.6S1.1,4,1.3,4.9s0.8,0.8,1.2,0.6
							C4.2,5.1,6,4.8,7.7,4.6c0,0-4.3,1.6-4.3,2.7s0.9,1.4,1.3,1.9s0.9,1.5,2,1.6s6.5-1.8,7.6-1.9c1.1,0,2.2,0,3.3-0.1
							C17.2,7.4,16.6,6.1,15.9,4.8z"/>
					</g>
				</g>
			</g>
			<g id="Groupe_172" transform="translate(67.777 25.383)">
				<g id="Groupe_171">
					<g id="Groupe_170">
						<g id="Tracé_129">
							<path class="st139" d="M35.2,4.5c5.6-1,11.5-2.4,11.5-2.4l10.5-0.4c0,0,9.6,2.1,13.4,3.8c0.4,0.2,0.4,8.6,1.3,10.8l-3.1,6.6
								c0,0-1.8,13.1-2.2,18.9c-0.2,2.7,0.5,25.8,0.5,25.8s-0.9,0.5-8.1,1.2s-25-0.3-25.1-1.1s3.5-31.4,3.6-33
								c0.2-2.4-0.7-13.6-0.7-13.6C35.5,23,32,31.1,28.5,35C26.4,37.3,16,38.7,14,38.7c-4.3,0.1-12.1,1-12.3,0.6
								c-0.2-0.2-0.7-6.9-0.2-7.1c0.4-0.1,14.9-1,18.6-2.9c1.4-0.7,5.4-9.6,5.4-9.6S32.1,5.9,35.2,4.5z"/>
						</g>
					</g>
				</g>
			</g>
			<g id="Groupe_173" transform="translate(115.906 48.746)">
				<g id="Rectangle_48">
					<path class="st136" d="M24.3,43.6H8.6c-4,0-7.3-3.3-7.3-7.3V9c0-4,3.3-7.3,7.3-7.3h15.7c4,0,7.3,3.3,7.3,7.3v27.4
						C31.6,40.4,28.3,43.6,24.3,43.6z"/>
				</g>
			</g>
			<g id="Groupe_174" transform="translate(119.585 75.508)">
				<g id="Tracé_130">
					<path class="st136" d="M3,26.6c4.1,0.2,8-1.5,10.8-4.5c6.1-6.7,5-18.4,4.9-18.9c-0.1-0.9-0.9-1.6-1.8-1.5
						c-0.9,0.1-1.6,0.9-1.5,1.8c0,0.1,1,10.8-4.1,16.3c-2.1,2.3-5.1,3.5-8.3,3.3c-0.9,0-1.7,0.8-1.7,1.7S2.1,26.6,3,26.6L3,26.6z"/>
				</g>
			</g>
			<g id="Groupe_184" transform="translate(49.711 13.924)">
				<g id="Tracé_131">
					<path class="st108" d="M18.2,10.1c0,2-0.7,3.9-2,5.4c-0.3,0.3-0.6,0.7-0.9,1c-0.1,0.1-0.2,0.2-0.3,0.2
						c-0.1,0.1-0.2,0.2-0.3,0.3c-1.1,0.8-2.5,1.3-3.8,1.5c-0.3,0-0.5,0.1-0.8,0.1c-0.1,0-0.2,0-0.3,0c-0.3,0-0.5,0-0.8,0
						c-0.3,0-0.6-0.1-0.9-0.1c-1.3-0.3-2.4-0.8-3.5-1.6c-0.3-0.2-0.6-0.5-0.9-0.8C3.7,16,3.7,16,3.6,15.9c-0.2-0.2-0.4-0.4-0.5-0.6
						c-2.9-3.7-2.2-9,1.5-11.9c3.7-2.9,9-2.2,11.9,1.5C17.6,6.5,18.2,8.3,18.2,10.1L18.2,10.1z"/>
				</g>
				<g id="Groupe_183" transform="translate(1.763 3.709)">
					<g id="Groupe_175" transform="translate(1.184 7.442)">
						<g id="Tracé_132">
							<path class="st125" d="M12.3,3.7l-0.6,2.2c-1.1,0.8-2.5,1.3-3.8,1.5c-0.3,0-0.5,0.1-0.8,0.1c-0.1,0-0.2,0-0.3,0
								c-0.3,0-0.5,0-0.8,0c-0.3,0-0.6-0.1-0.9-0.1C3.9,7,2.7,6.5,1.7,5.7C1.6,5,1.4,4.1,1.3,3.4C1.9,3.1,3.9,2.5,5.2,2l0.1,0l0.1,0
								l0.2-0.1l0.2-0.1l0.5-0.2l0,0l0,0h0l1.7,0.1l0.3,0l0.1,0l0,0c0.1,0,0.4,0.1,0.8,0.2l0,0C10.3,2.4,11.4,2.9,12.3,3.7z"/>
						</g>
					</g>
					<g id="Groupe_176" transform="translate(4.689 0.524)">
						<g id="Tracé_133">
							<path class="st110" d="M3.8,1.7c0,0,2,0.3,1.7,3.5S3.3,8.1,3.2,8.1s-1.8,0-1.9-3.8C1.3,4.3,1.3,1.4,3.8,1.7z"/>
						</g>
					</g>
					<g id="Groupe_177" transform="translate(5.368 5.628)">
						<g id="Tracé_134">
							<path class="st110" d="M4,2.1c0,0.5,0,1.1,0.1,1.6c0.1,0.3-1.6,1.2-2.7,0.2c0.1-0.6,0.2-1.3,0.1-1.9C1.4,1.4,4,2.1,4,2.1z"/>
						</g>
					</g>
					<g id="Groupe_178" transform="translate(8.71 3.045)">
						<g id="Tracé_135">
							<path class="st110" d="M1.5,1.8c0,0,0.2-0.2,0.3,0S1.4,3.1,1.4,3.1c0,0,0,0.1-0.1,0C1.3,2.7,1.4,2.3,1.5,1.8z"/>
						</g>
					</g>
					<g id="Groupe_179" transform="translate(4.396 2.952)">
						<g id="Tracé_136">
							<path class="st110" d="M1.6,1.8c0,0-0.2-0.2-0.3,0c0,0.5,0.1,0.9,0.3,1.4c0,0,0.1,0.1,0.1,0.1C1.7,2.7,1.7,2.3,1.6,1.8z"/>
						</g>
					</g>
					<g id="Groupe_180" transform="translate(4.548)">
						<g id="Tracé_137">
							<path class="st122" d="M5.7,4.6C5.7,5,5.6,5.3,5.6,5.3L5.3,5.7c0-0.3,0-0.7,0-1c0-0.1,0-0.1-0.1-0.2c0-0.1-0.1-0.3-0.1-0.4
								c-1-0.4-2.2-0.3-3.2,0.1c0,0,0,0.1,0,0.3c0,0.2,0,0.4-0.1,0.4c-0.1,0.1-0.1,1-0.1,1L1.5,5.6c0,0-0.1-0.5-0.1-1.1l0,0
								c0-0.1,0-0.3,0-0.4C1.2,3.3,1.5,2.5,2.1,1.9c0.8-0.3,1.8-0.3,2.6,0C4.8,1.9,5,2,5.1,2C5.6,2.8,5.8,3.7,5.7,4.6z"/>
						</g>
					</g>
					<g id="Tracé_138">
						<path class="st146" d="M7,8.2C7.2,8.5,7.6,8.6,8,8.6c0.4,0,0.8-0.1,1.1-0.4C8.9,8.6,8.5,8.9,8,8.9C7.6,8.9,7.2,8.6,7,8.2z"/>
					</g>
					<g id="Tracé_139">
						<path class="st110" d="M6.5,9.4c0.3,0.6,0.9,0.9,1.6,1c0.6,0.1,1.2-0.8,1.5-1.2C8.5,8.9,7.4,9,6.5,9.4z"/>
					</g>
					<g id="Tracé_140">
						<path class="st121" d="M9.3,9C9,9.4,8.5,9.8,8,10.1L8.6,11l0.9-1.7L9.3,9z"/>
					</g>
					<g id="Tracé_141">
						<path class="st121" d="M6.7,9.1c0.4,0.4,0.8,0.8,1.3,1L7.4,11l-1-1.5L6.7,9.1z"/>
					</g>
					<g id="Tracé_142">
						<path class="st126" d="M8,10.1l0.5,0.7c-0.3,0.2-0.7,0.2-0.9,0L8,10.1z"/>
					</g>
					<g id="Tracé_143">
						<path class="st114" d="M14.1,11c0,0-0.5,1.8-0.5,1.9c-0.1,0.1-0.2,0.2-0.3,0.2c-0.1,0.1-0.2,0.2-0.3,0.3
							c-1.1,0.8-2.5,1.3-3.8,1.5c0.1-2.9,0.5-5.5,0.5-5.5c0.3,0.1,0.5,0.1,0.8,0.2l0,0C11.6,9.9,12.9,10.4,14.1,11z"/>
					</g>
					<g id="Tracé_144">
						<path class="st114" d="M6.3,14.7c-1.3-0.3-2.4-0.8-3.5-1.6c-0.3-0.2-0.6-0.5-0.9-0.8c-0.1-0.1-0.1-0.1-0.2-0.2
							c-0.1-0.6-0.2-1-0.3-1.1l0,0c1.5-0.8,3.1-1.3,4.7-1.7l0,0C6.4,9.6,6.4,12,6.3,14.7z"/>
					</g>
					<g id="Tracé_145">
						<path class="st126" d="M8.3,10.9c0,0.8,0,2.3,0,4c-0.1,0-0.2,0-0.3,0c-0.3,0-0.5,0-0.8,0c0.1-1.3,0.3-2.6,0.6-3.9
							c0-0.2,0.1-0.3,0.1-0.3l0.5,0.1C8.3,10.8,8.3,10.9,8.3,10.9z"/>
					</g>
					<g id="Groupe_181" transform="translate(11.92 9.277)">
						<g id="Tracé_146">
							<path class="st114" d="M2.6,2.6C2.3,2.9,2,3.3,1.6,3.6C1.5,3.6,1.4,3.7,1.3,3.8l0.8-2.1C2.3,1.8,2.5,2.4,2.6,2.6z"/>
						</g>
					</g>
					<g id="Groupe_182" transform="translate(0 9.474)">
						<g id="Tracé_147">
							<path class="st114" d="M2,2.9C2,2.9,1.9,2.8,1.9,2.8C1.7,2.6,1.5,2.3,1.3,2.1C1.4,2,1.5,1.8,1.6,1.7l0,0L2,2.9z"/>
						</g>
					</g>
				</g>
			</g>
		</g>
		<g id="Groupe_186" transform="translate(332.024 168.593)">
			<g id="Tracé_148">
				<path class="st147" d="M2.4,18.1c-0.6,0-1-0.5-1-1c0,0,0,0,0,0V2.7c0-0.6,0.5-1,1-1c0.6,0,1,0.5,1,1l0,0v14.3
					C3.4,17.6,2.9,18.1,2.4,18.1C2.4,18.1,2.4,18.1,2.4,18.1z"/>
			</g>
		</g>
		<g id="Groupe_187" transform="translate(324.854 175.764)">
			<g id="Tracé_149">
				<path class="st147" d="M16.7,3.8H2.4c-0.6,0-1-0.5-1-1s0.5-1,1-1h14.3c0.6,0,1,0.5,1,1S17.3,3.8,16.7,3.8z"/>
			</g>
		</g>
	</g>
</g>
</svg>
